<?xml version="1.0" encoding="utf-8"?>
<!-- Generator: Adobe Illustrator 25.4.1, SVG Export Plug-In . SVG Version: 6.00 Build 0)  -->
<svg version="1.1" id="Layer_1" xmlns="http://www.w3.org/2000/svg" xmlns:xlink="http://www.w3.org/1999/xlink" x="0px" y="0px"
	 viewBox="0 0 600 600" style="enable-background:new 0 0 600 600;" xml:space="preserve">
<style type="text/css">
	.st0{fill:#F0F0F0;}
</style>
<g id="Layer_2_00000159459137925680711090000002307642973990943148_">
	<g id="Layer_1-2">
		<path class="st0" d="M173.7,300.2L300.9,92.9l0,0C245.8,59.1,173.8,76.3,140,131.4c0,0,0,0,0,0L35.2,302.2L140,469
			c33.8,55.1,105.8,72.3,160.9,38.5c0,0,0,0,0,0l0,0L173.7,300.2z"/>
		<path class="st0" d="M270,223.6l-45,71.1l45,67.9h116.8c15.7,0,28.4,12.7,28.4,28.4V600h139V362.5c0-76.8-62.2-139-139-139
			L270,223.6z"/>
	</g>
</g>
</svg>
