<?xml version="1.0" encoding="utf-8"?>
<!-- Generator: Adobe Illustrator 24.0.2, SVG Export Plug-In . SVG Version: 6.00 Build 0)  -->
<svg version="1.1" id="Layer_1" xmlns="http://www.w3.org/2000/svg" xmlns:xlink="http://www.w3.org/1999/xlink" x="0px" y="0px"
	 viewBox="0 0 600 600" style="enable-background:new 0 0 600 600;" xml:space="preserve">
<style type="text/css">
	.st0{fill:#FFFFFF;}
</style>
<path class="st0" d="M379.6,218.1c37.5,0,67.9,28.2,67.9,63v117.2H382c-36.2,0-65.5-27.2-65.5-60.9V218h63.1V218.1z M234.5,267.2
	c36.2,0,65.5,29.4,65.5,65.5c0,36.2-29.4,65.5-65.5,65.5c-36.2,0-65.5-29.4-65.5-65.5C168.9,296.6,198.3,267.2,234.5,267.2z
	 M300.3,5.1c7.3,0,14.3,0.2,21.1,0.6c44.2,3.1,85.7,16,122.4,36.5c55.8,31.1,100.4,79.8,126.4,138.6c11.4,25.7,19.2,53.3,22.8,82.2
	c0.9,6.2,1.5,27.3,1.8,45.4v80H459.5v-80c0-24.5-4.4-49.7-12-69c-20.6-52.3-65.1-84.9-110.6-94.7c-11.7-2.8-24-4.2-36.6-4.2
	c-16.6,0-32.6,2.6-47.7,7.3c-64.9,20.2-112,80.8-112,152.4c0,7.8,0.6,15.4,1.7,23c11.2,77.2,77.7,136.5,158,136.5
	c0.7,0-22.2-0.9,37.3,0C377.2,460.3,413,505.4,445,595H303c-26.7,0-52.5-3.2-76.9-9.2C98.9,552.7,5.1,437.3,5.1,300v-3
	c0.2-10.4,0.9-20.8,2.2-31.5C24.4,118.9,149.1,5.1,300.3,5.1z"/>
</svg>
