<?xml version="1.0" encoding="utf-8"?>
<!-- Generator: Adobe Illustrator 20.0.0, SVG Export Plug-In . SVG Version: 6.00 Build 0)  -->
<svg version="1.1" id="Layer_1" xmlns="http://www.w3.org/2000/svg" xmlns:xlink="http://www.w3.org/1999/xlink" x="0px" y="0px"
	 viewBox="0 0 1920 1080" style="enable-background:new 0 0 1920 1080;" xml:space="preserve" preserveAspectRatio="none">
<style type="text/css">
	.st0{clip-path:url(#SVGID_2_);}
	.st1{fill:#89E0E0;}
	.st2{clip-path:url(#SVGID_4_);fill:#89E0E0;}
</style>
<g>
	<g>
		<g>
			<defs>
				<rect id="SVGID_1_" x="-1.3" y="-15" width="1922.5" height="1095"/>
			</defs>
			<clipPath id="SVGID_2_">
				<use xlink:href="#SVGID_1_"  style="overflow:visible;"/>
			</clipPath>
			<g class="st0">
				<rect x="-446.5" y="1086.2" class="st1" width="2378.1" height="3.5"/>
				<polygon class="st1" points="-446.4,1089.7 1931.7,1066.5 1931.6,1063 -446.5,1086.2 				"/>
				<polygon class="st1" points="-446.3,1089.7 1931.8,1043.3 1931.5,1039.8 -446.6,1086.2 				"/>
				<polygon class="st1" points="-446.2,1089.7 1931.9,1020.1 1931.4,1016.6 -446.7,1086.2 				"/>
				<polygon class="st1" points="-446.1,1089.7 1932,996.9 1931.3,993.4 -446.8,1086.2 				"/>
				<polygon class="st1" points="-446.1,1089.7 1932,973.7 1931.2,970.2 -446.9,1086.2 				"/>
				<polygon class="st1" points="-446,1089.7 1932.1,950.5 1931.2,947 -446.9,1086.2 				"/>
				<polygon class="st1" points="-445.9,1089.7 1932.2,927.3 1931.1,923.8 -447,1086.2 				"/>
				<polygon class="st1" points="-445.8,1089.7 1932.3,904.1 1931,900.6 -447.1,1086.2 				"/>
				<polygon class="st1" points="-445.8,1089.7 1932.3,880.9 1930.9,877.4 -447.2,1086.2 				"/>
				<polygon class="st1" points="-445.7,1089.7 1932.4,857.7 1930.9,854.2 -447.2,1086.2 				"/>
				<polygon class="st1" points="-445.6,1089.7 1932.5,834.4 1930.8,831 -447.3,1086.2 				"/>
				<polygon class="st1" points="-445.5,1089.7 1932.6,811.2 1930.7,807.8 -447.4,1086.3 				"/>
				<polygon class="st1" points="-445.5,1089.7 1932.6,788 1930.6,784.6 -447.5,1086.3 				"/>
				<polygon class="st1" points="-445.4,1089.6 1932.7,764.8 1930.6,761.4 -447.5,1086.3 				"/>
				<polygon class="st1" points="-445.3,1089.6 1932.8,741.6 1930.5,738.2 -447.6,1086.3 				"/>
				<polygon class="st1" points="-445.3,1089.6 1932.8,718.4 1930.4,715.1 -447.7,1086.3 				"/>
				<polygon class="st1" points="-445.2,1089.6 1932.9,695.2 1930.4,691.9 -447.7,1086.3 				"/>
				<polygon class="st1" points="-445.1,1089.6 1933,672 1930.3,668.7 -447.8,1086.3 				"/>
				<polygon class="st1" points="-445.1,1089.6 1933,648.7 1930.2,645.5 -447.9,1086.3 				"/>
				<polygon class="st1" points="-445,1089.6 1933.1,625.5 1930.2,622.3 -447.9,1086.3 				"/>
				<polygon class="st1" points="-444.9,1089.6 1933.2,602.3 1930.1,599.1 -448,1086.4 				"/>
				<polygon class="st1" points="-444.9,1089.6 1933.2,579.1 1930,575.9 -448.1,1086.4 				"/>
				<polygon class="st1" points="-444.8,1089.5 1933.3,555.9 1930,552.7 -448.1,1086.4 				"/>
				<polygon class="st1" points="-444.8,1089.5 1933.3,532.7 1929.9,529.5 -448.2,1086.4 				"/>
				<polygon class="st1" points="-444.7,1089.5 1933.4,509.5 1929.9,506.3 -448.2,1086.4 				"/>
				<polygon class="st1" points="-444.6,1089.5 1933.5,486.2 1929.8,483.2 -448.3,1086.4 				"/>
				<polygon class="st1" points="-444.6,1089.5 1933.5,463 1929.8,460 -448.3,1086.4 				"/>
				<polygon class="st1" points="-444.5,1089.5 1933.6,439.8 1929.7,436.8 -448.4,1086.4 				"/>
				<polygon class="st1" points="-444.5,1089.5 1933.6,416.6 1929.7,413.6 -448.4,1086.5 				"/>
				<polygon class="st1" points="-444.4,1089.4 1933.7,393.4 1929.6,390.4 -448.5,1086.5 				"/>
				<polygon class="st1" points="-444.4,1089.4 1933.7,370.2 1929.6,367.2 -448.5,1086.5 				"/>
				<polygon class="st1" points="-444.3,1089.4 1933.8,346.9 1929.5,344 -448.6,1086.5 				"/>
				<polygon class="st1" points="-444.3,1089.4 1933.8,323.7 1929.5,320.8 -448.6,1086.5 				"/>
				<polygon class="st1" points="-444.3,1089.4 1933.8,300.5 1929.4,297.6 -448.7,1086.5 				"/>
				<polygon class="st1" points="-444.2,1089.4 1933.9,277.3 1929.4,274.5 -448.7,1086.5 				"/>
				<polygon class="st1" points="-444.2,1089.4 1933.9,254.1 1929.3,251.3 -448.8,1086.6 				"/>
				<polygon class="st1" points="-444.1,1089.3 1934,230.9 1929.3,228.1 -448.8,1086.6 				"/>
				<polygon class="st1" points="-444.1,1089.3 1934,207.6 1929.3,204.9 -448.8,1086.6 				"/>
				<polygon class="st1" points="-444.1,1089.3 1934,184.4 1929.2,181.7 -448.9,1086.6 				"/>
				<polygon class="st1" points="-444,1089.3 1934.1,161.2 1929.2,158.5 -448.9,1086.6 				"/>
				<polygon class="st1" points="-444,1089.3 1934.1,138 1929.2,135.3 -448.9,1086.6 				"/>
				<polygon class="st1" points="-444,1089.3 1934.1,114.8 1929.1,112.1 -449,1086.6 				"/>
				<polygon class="st1" points="-443.9,1089.3 1934.2,91.6 1929.1,89 -449,1086.7 				"/>
				<polygon class="st1" points="-443.9,1089.2 1934.2,68.3 1929.1,65.8 -449,1086.7 				"/>
				<polygon class="st1" points="-443.9,1089.2 1934.2,45.1 1929,42.6 -449.1,1086.7 				"/>
				<polygon class="st1" points="-443.8,1089.2 1934.3,21.9 1929,19.4 -449.1,1086.7 				"/>
				<polygon class="st1" points="-443.8,1089.2 1934.3,-1.3 1929,-3.8 -449.1,1086.7 				"/>
			</g>
		</g>
	</g>
	<g>
		<g>
			<defs>
				<rect id="SVGID_3_" x="-1.3" y="-15" width="1922.5" height="1095"/>
			</defs>
			<clipPath id="SVGID_4_">
				<use xlink:href="#SVGID_3_"  style="overflow:visible;"/>
			</clipPath>
			<polygon class="st2" points="-17.3,-6.7 -17.3,1092.2 1653.6,542.7 			"/>
		</g>
	</g>
</g>
</svg>
