<svg xmlns="http://www.w3.org/2000/svg" viewBox="0 0 142.76 381"><defs><style>.cls-1{fill:#ffdb1f;}</style></defs><title>Asset 3</title><g id="Layer_2" data-name="Layer 2"><g id="Layer_1-2" data-name="Layer 1"><path class="cls-1" d="M5.46,185q20.46-4.54,28.42-12.73t8-25q0-6.82-1.36-20.46Q36.83,90,36.83,74.11q0-40.92,30.92-60.92Q88.2,0,130,0q12.73,0,12.73,4.29,0,3.44-6.75,3.44h-6.3q-18,0-25,9.8t-7,34.87q0,13.67,1.09,36,.72,15,.72,20.51,0,31.91-18.64,52.19T28.19,186.86q-7.73,1.36-7.73,4.1,0,1.83,4.11,2.28,32.93,5,52.14,22.79,22.87,21.42,22.86,61.07a190.31,190.31,0,0,1-.91,20.52q-.91,24.16-.91,32.81,0,24.15,7,33.27t26.33,9.57q11.7,0,11.7,3.86T131.39,381q-40,0-60-10.91-34.55-19.1-34.55-60,0-14.09,3.64-55,1.36-15.45,1.36-22.28,0-14.54-8.87-24.32T9.09,196.87Q0,195.5,0,190.5,0,186.41,5.46,185Z"/></g></g></svg>