<svg xmlns="http://www.w3.org/2000/svg" viewBox="0 0 142.76 381"><defs><style>.cls-1{fill:#ffdb1f;}</style></defs><title>Asset 2</title><g id="Layer_2" data-name="Layer 2"><g id="Layer_1-2" data-name="Layer 1"><path class="cls-1" d="M142.76,190.5q0,5-9.09,6.37-15,1.82-23.87,11.59t-8.87,24.32q0,6.82,1.36,22.28,3.63,40.92,3.64,55,0,40.92-34.55,60-20,10.91-60,10.91Q0,381,0,377.14t11.7-3.86q19.35-.46,26.33-9.57t7-33.27q0-8.66-.91-32.81a190.31,190.31,0,0,1-.91-20.52q0-39.65,22.86-61.07,19.2-17.77,52.14-22.79,4.11-.45,4.11-2.28,0-2.73-7.73-4.1-34.1-5.47-52.74-25.75T43.19,108.91q0-5.46.72-20.51Q45,66.07,45,52.4q0-25.06-7-34.87T13,7.73H6.75Q0,7.73,0,4.29,0,0,12.73,0,54.55,0,75,13.19q30.91,20,30.92,60.92,0,15.92-3.64,52.74-1.36,13.64-1.36,20.46,0,16.83,8,25T137.3,185Q142.76,186.41,142.76,190.5Z"/></g></g></svg>