<svg id="Layer_1" data-name="Layer 1" xmlns="http://www.w3.org/2000/svg" width="23" height="5768" viewBox="0 0 23 5768"><defs><style>.cls-1{fill:#fff;}.cls-2{fill:#193279;}</style></defs><title>dots-lrg-bg</title><rect class="cls-1" width="23" height="5768"/><circle class="cls-2" cx="4.5" cy="13" r="4"/><circle class="cls-2" cx="4.5" cy="28.28" r="4"/><circle class="cls-2" cx="4.5" cy="43.56" r="4"/><circle class="cls-2" cx="4.5" cy="58.84" r="4"/><circle class="cls-2" cx="4.5" cy="74.11" r="4"/><circle class="cls-2" cx="4.5" cy="89.39" r="4"/><circle class="cls-2" cx="4.5" cy="104.67" r="4"/><circle class="cls-2" cx="4.5" cy="119.95" r="4"/><circle class="cls-2" cx="4.5" cy="135.23" r="4"/><circle class="cls-2" cx="4.5" cy="150.51" r="4"/><circle class="cls-2" cx="4.5" cy="165.79" r="4"/><circle class="cls-2" cx="4.5" cy="181.06" r="4"/><circle class="cls-2" cx="4.5" cy="196.34" r="4"/><circle class="cls-2" cx="4.5" cy="211.62" r="4"/><circle class="cls-2" cx="4.5" cy="226.9" r="4"/><circle class="cls-2" cx="4.5" cy="242.18" r="4"/><circle class="cls-2" cx="4.5" cy="257.46" r="4"/><circle class="cls-2" cx="4.5" cy="272.73" r="4"/><circle class="cls-2" cx="4.5" cy="288.01" r="4"/><circle class="cls-2" cx="4.5" cy="303.29" r="4"/><circle class="cls-2" cx="4.5" cy="318.57" r="4"/><circle class="cls-2" cx="4.5" cy="333.85" r="4"/><circle class="cls-2" cx="4.5" cy="349.13" r="4"/><circle class="cls-2" cx="4.5" cy="364.41" r="4"/><circle class="cls-2" cx="4.5" cy="379.68" r="4"/><circle class="cls-2" cx="4.5" cy="394.96" r="4"/><circle class="cls-2" cx="4.5" cy="410.24" r="4"/><circle class="cls-2" cx="4.5" cy="425.52" r="4"/><circle class="cls-2" cx="4.5" cy="440.8" r="4"/><circle class="cls-2" cx="4.5" cy="456.08" r="4"/><circle class="cls-2" cx="4.5" cy="471.36" r="4"/><circle class="cls-2" cx="4.5" cy="486.63" r="4"/><circle class="cls-2" cx="4.5" cy="501.91" r="4"/><circle class="cls-2" cx="4.5" cy="517.19" r="4"/><circle class="cls-2" cx="4.5" cy="532.47" r="4"/><circle class="cls-2" cx="4.5" cy="547.75" r="4"/><circle class="cls-2" cx="4.5" cy="563.03" r="4"/><circle class="cls-2" cx="4.5" cy="578.31" r="4"/><circle class="cls-2" cx="4.5" cy="593.58" r="4"/><circle class="cls-2" cx="4.5" cy="608.86" r="4"/><circle class="cls-2" cx="4.5" cy="624.14" r="4"/><circle class="cls-2" cx="4.5" cy="639.42" r="4"/><circle class="cls-2" cx="4.5" cy="654.7" r="4"/><circle class="cls-2" cx="4.5" cy="669.98" r="4"/><circle class="cls-2" cx="4.5" cy="685.25" r="4"/><circle class="cls-2" cx="4.5" cy="700.53" r="4"/><circle class="cls-2" cx="4.5" cy="715.81" r="4"/><circle class="cls-2" cx="4.5" cy="731.09" r="4"/><circle class="cls-2" cx="4.5" cy="746.37" r="4"/><circle class="cls-2" cx="4.5" cy="761.65" r="4"/><circle class="cls-2" cx="4.5" cy="776.93" r="4"/><circle class="cls-2" cx="4.5" cy="792.2" r="4"/><circle class="cls-2" cx="4.5" cy="807.48" r="4"/><circle class="cls-2" cx="4.5" cy="822.76" r="4"/><circle class="cls-2" cx="4.5" cy="838.04" r="4"/><circle class="cls-2" cx="4.5" cy="853.32" r="4"/><circle class="cls-2" cx="4.5" cy="868.6" r="4"/><circle class="cls-2" cx="4.5" cy="883.88" r="4"/><circle class="cls-2" cx="4.5" cy="899.15" r="4"/><circle class="cls-2" cx="4.5" cy="914.43" r="4"/><circle class="cls-2" cx="4.5" cy="929.71" r="4"/><circle class="cls-2" cx="4.5" cy="944.99" r="4"/><circle class="cls-2" cx="4.5" cy="960.27" r="4"/><circle class="cls-2" cx="4.5" cy="975.55" r="4"/><circle class="cls-2" cx="4.5" cy="990.82" r="4"/><circle class="cls-2" cx="4.5" cy="1006.1" r="4"/><circle class="cls-2" cx="4.5" cy="1021.38" r="4"/><circle class="cls-2" cx="4.5" cy="1036.66" r="4"/><circle class="cls-2" cx="4.5" cy="1051.94" r="4"/><circle class="cls-2" cx="4.5" cy="1067.22" r="4"/><circle class="cls-2" cx="4.5" cy="1082.5" r="4"/><circle class="cls-2" cx="4.5" cy="1097.77" r="4"/><circle class="cls-2" cx="4.5" cy="1113.05" r="4"/><circle class="cls-2" cx="4.5" cy="1128.33" r="4"/><circle class="cls-2" cx="4.5" cy="1143.61" r="4"/><circle class="cls-2" cx="4.5" cy="1158.89" r="4"/><circle class="cls-2" cx="4.5" cy="1174.17" r="4"/><circle class="cls-2" cx="4.5" cy="1189.45" r="4"/><circle class="cls-2" cx="4.5" cy="1204.72" r="4"/><circle class="cls-2" cx="4.5" cy="1220" r="4"/><circle class="cls-2" cx="4.5" cy="1235.28" r="4"/><circle class="cls-2" cx="4.5" cy="1250.56" r="4"/><circle class="cls-2" cx="4.5" cy="1265.84" r="4"/><circle class="cls-2" cx="4.5" cy="1281.12" r="4"/><circle class="cls-2" cx="4.5" cy="1296.4" r="4"/><circle class="cls-2" cx="4.5" cy="1311.67" r="4"/><circle class="cls-2" cx="4.5" cy="1326.95" r="4"/><circle class="cls-2" cx="4.5" cy="1342.23" r="4"/><circle class="cls-2" cx="4.5" cy="1357.51" r="4"/><circle class="cls-2" cx="4.5" cy="1372.79" r="4"/><circle class="cls-2" cx="4.5" cy="1388.07" r="4"/><circle class="cls-2" cx="4.5" cy="1403.34" r="4"/><circle class="cls-2" cx="4.5" cy="1418.62" r="4"/><circle class="cls-2" cx="4.5" cy="1433.9" r="4"/><circle class="cls-2" cx="4.5" cy="1449.18" r="4"/><circle class="cls-2" cx="4.5" cy="1464.46" r="4"/><circle class="cls-2" cx="4.5" cy="1479.74" r="4"/><circle class="cls-2" cx="4.5" cy="1495.02" r="4"/><circle class="cls-2" cx="4.5" cy="1510.29" r="4"/><circle class="cls-2" cx="4.5" cy="1525.57" r="4"/><circle class="cls-2" cx="4.5" cy="1540.85" r="4"/><circle class="cls-2" cx="4.5" cy="1556.13" r="4"/><circle class="cls-2" cx="4.5" cy="1571.41" r="4"/><circle class="cls-2" cx="4.5" cy="1586.69" r="4"/><circle class="cls-2" cx="4.5" cy="1601.97" r="4"/><circle class="cls-2" cx="4.5" cy="1617.24" r="4"/><circle class="cls-2" cx="4.5" cy="1632.52" r="4"/><circle class="cls-2" cx="4.5" cy="1647.8" r="4"/><circle class="cls-2" cx="4.5" cy="1663.08" r="4"/><circle class="cls-2" cx="4.5" cy="1678.36" r="4"/><circle class="cls-2" cx="4.5" cy="1693.64" r="4"/><circle class="cls-2" cx="4.5" cy="1708.92" r="4"/><circle class="cls-2" cx="4.5" cy="1724.19" r="4"/><circle class="cls-2" cx="4.5" cy="1739.47" r="4"/><circle class="cls-2" cx="4.5" cy="1754.75" r="4"/><circle class="cls-2" cx="4.5" cy="1770.03" r="4"/><circle class="cls-2" cx="4.5" cy="1785.31" r="4"/><circle class="cls-2" cx="4.5" cy="1800.59" r="4"/><circle class="cls-2" cx="4.5" cy="1815.86" r="4"/><circle class="cls-2" cx="4.5" cy="1831.14" r="4"/><circle class="cls-2" cx="4.5" cy="1846.42" r="4"/><circle class="cls-2" cx="4.5" cy="1861.7" r="4"/><circle class="cls-2" cx="4.5" cy="1876.98" r="4"/><circle class="cls-2" cx="4.5" cy="1892.26" r="4"/><circle class="cls-2" cx="4.5" cy="1907.54" r="4"/><circle class="cls-2" cx="4.5" cy="1922.81" r="4"/><circle class="cls-2" cx="4.5" cy="1938.09" r="4"/><circle class="cls-2" cx="4.5" cy="1953.37" r="4"/><circle class="cls-2" cx="4.5" cy="1968.65" r="4"/><circle class="cls-2" cx="4.5" cy="1983.93" r="4"/><circle class="cls-2" cx="4.5" cy="1999.21" r="4"/><circle class="cls-2" cx="4.5" cy="2014.49" r="4"/><circle class="cls-2" cx="4.5" cy="2029.76" r="4"/><circle class="cls-2" cx="4.5" cy="2045.04" r="4"/><circle class="cls-2" cx="4.5" cy="2060.32" r="4"/><circle class="cls-2" cx="4.5" cy="2075.6" r="4"/><circle class="cls-2" cx="4.5" cy="2090.88" r="4"/><circle class="cls-2" cx="4.5" cy="2106.16" r="4"/><circle class="cls-2" cx="4.5" cy="2121.44" r="4"/><circle class="cls-2" cx="4.5" cy="2136.71" r="4"/><circle class="cls-2" cx="4.5" cy="2151.99" r="4"/><circle class="cls-2" cx="4.5" cy="2167.27" r="4"/><circle class="cls-2" cx="4.5" cy="2182.55" r="4"/><circle class="cls-2" cx="4.5" cy="2197.83" r="4"/><circle class="cls-2" cx="4.5" cy="2213.11" r="4"/><circle class="cls-2" cx="4.5" cy="2228.38" r="4"/><circle class="cls-2" cx="4.5" cy="2243.66" r="4"/><circle class="cls-2" cx="4.5" cy="2258.94" r="4"/><circle class="cls-2" cx="4.5" cy="2274.22" r="4"/><circle class="cls-2" cx="4.5" cy="2289.5" r="4"/><circle class="cls-2" cx="4.5" cy="2304.78" r="4"/><circle class="cls-2" cx="4.5" cy="2320.06" r="4"/><circle class="cls-2" cx="4.5" cy="2335.33" r="4"/><circle class="cls-2" cx="4.5" cy="2350.61" r="4"/><circle class="cls-2" cx="4.5" cy="2365.89" r="4"/><circle class="cls-2" cx="4.5" cy="2381.17" r="4"/><circle class="cls-2" cx="4.5" cy="2396.45" r="4"/><circle class="cls-2" cx="4.5" cy="2411.73" r="4"/><circle class="cls-2" cx="4.5" cy="2427.01" r="4"/><circle class="cls-2" cx="4.5" cy="2442.28" r="4"/><circle class="cls-2" cx="4.5" cy="2457.56" r="4"/><circle class="cls-2" cx="4.5" cy="2472.84" r="4"/><circle class="cls-2" cx="4.5" cy="2488.12" r="4"/><circle class="cls-2" cx="4.5" cy="2503.4" r="4"/><circle class="cls-2" cx="4.5" cy="2518.68" r="4"/><circle class="cls-2" cx="4.5" cy="2533.95" r="4"/><circle class="cls-2" cx="4.5" cy="2549.23" r="4"/><circle class="cls-2" cx="4.5" cy="2564.51" r="4"/><circle class="cls-2" cx="4.5" cy="2579.79" r="4"/><circle class="cls-2" cx="4.5" cy="2595.07" r="4"/><circle class="cls-2" cx="4.5" cy="2610.35" r="4"/><circle class="cls-2" cx="4.5" cy="2625.63" r="4"/><circle class="cls-2" cx="4.5" cy="2640.9" r="4"/><circle class="cls-2" cx="4.5" cy="2656.18" r="4"/><circle class="cls-2" cx="4.5" cy="2671.46" r="4"/><circle class="cls-2" cx="4.5" cy="2686.74" r="4"/><circle class="cls-2" cx="4.5" cy="2702.02" r="4"/><circle class="cls-2" cx="4.5" cy="2717.3" r="4"/><circle class="cls-2" cx="4.5" cy="2732.58" r="4"/><circle class="cls-2" cx="4.5" cy="2747.85" r="4"/><circle class="cls-2" cx="4.5" cy="2763.13" r="4"/><circle class="cls-2" cx="4.5" cy="2778.41" r="4"/><circle class="cls-2" cx="4.5" cy="2793.69" r="4"/><circle class="cls-2" cx="4.5" cy="2808.97" r="4"/><circle class="cls-2" cx="4.5" cy="2824.25" r="4"/><circle class="cls-2" cx="4.5" cy="2839.53" r="4"/><circle class="cls-2" cx="4.5" cy="2854.8" r="4"/><circle class="cls-2" cx="4.5" cy="2870.08" r="4"/><circle class="cls-2" cx="4.5" cy="2885.36" r="4"/><circle class="cls-2" cx="4.5" cy="2900.64" r="4"/><circle class="cls-2" cx="4.5" cy="2915.92" r="4"/><circle class="cls-2" cx="4.5" cy="2931.2" r="4"/><circle class="cls-2" cx="4.5" cy="2946.47" r="4"/><circle class="cls-2" cx="4.5" cy="2961.75" r="4"/><circle class="cls-2" cx="4.5" cy="2977.03" r="4"/><circle class="cls-2" cx="4.5" cy="2992.31" r="4"/><circle class="cls-2" cx="4.5" cy="3007.59" r="4"/><circle class="cls-2" cx="4.5" cy="3022.87" r="4"/><circle class="cls-2" cx="4.5" cy="3038.15" r="4"/><circle class="cls-2" cx="4.5" cy="3053.42" r="4"/><circle class="cls-2" cx="4.5" cy="3068.7" r="4"/><circle class="cls-2" cx="4.5" cy="3083.98" r="4"/><circle class="cls-2" cx="4.5" cy="3099.26" r="4"/><circle class="cls-2" cx="4.5" cy="3114.54" r="4"/><circle class="cls-2" cx="4.5" cy="3129.82" r="4"/><circle class="cls-2" cx="4.5" cy="3145.1" r="4"/><circle class="cls-2" cx="4.5" cy="3160.37" r="4"/><circle class="cls-2" cx="4.5" cy="3175.65" r="4"/><circle class="cls-2" cx="4.5" cy="3190.93" r="4"/><circle class="cls-2" cx="4.5" cy="3206.21" r="4"/><circle class="cls-2" cx="4.5" cy="3221.49" r="4"/><circle class="cls-2" cx="4.5" cy="3236.77" r="4"/><circle class="cls-2" cx="4.5" cy="3252.05" r="4"/><circle class="cls-2" cx="4.5" cy="3267.32" r="4"/><circle class="cls-2" cx="4.5" cy="3282.6" r="4"/><circle class="cls-2" cx="4.5" cy="3297.88" r="4"/><circle class="cls-2" cx="4.5" cy="3313.16" r="4"/><circle class="cls-2" cx="4.5" cy="3328.44" r="4"/><circle class="cls-2" cx="4.5" cy="3343.72" r="4"/><circle class="cls-2" cx="4.5" cy="3358.99" r="4"/><circle class="cls-2" cx="4.5" cy="3374.27" r="4"/><circle class="cls-2" cx="4.5" cy="3389.55" r="4"/><circle class="cls-2" cx="4.5" cy="3404.83" r="4"/><circle class="cls-2" cx="4.5" cy="3420.11" r="4"/><circle class="cls-2" cx="4.5" cy="3435.39" r="4"/><circle class="cls-2" cx="4.5" cy="3450.67" r="4"/><circle class="cls-2" cx="4.5" cy="3465.94" r="4"/><circle class="cls-2" cx="4.5" cy="3481.22" r="4"/><circle class="cls-2" cx="4.5" cy="3496.5" r="4"/><circle class="cls-2" cx="4.5" cy="3511.78" r="4"/><circle class="cls-2" cx="4.5" cy="3527.06" r="4"/><circle class="cls-2" cx="4.5" cy="3542.34" r="4"/><circle class="cls-2" cx="4.5" cy="3557.62" r="4"/><circle class="cls-2" cx="4.5" cy="3572.89" r="4"/><circle class="cls-2" cx="4.5" cy="3588.17" r="4"/><circle class="cls-2" cx="4.5" cy="3603.45" r="4"/><circle class="cls-2" cx="4.5" cy="3618.73" r="4"/><circle class="cls-2" cx="4.5" cy="3634.01" r="4"/><circle class="cls-2" cx="4.5" cy="3649.29" r="4"/><circle class="cls-2" cx="4.5" cy="3664.56" r="4"/><circle class="cls-2" cx="4.5" cy="3679.84" r="4"/><circle class="cls-2" cx="4.5" cy="3695.12" r="4"/><circle class="cls-2" cx="4.5" cy="3710.4" r="4"/><circle class="cls-2" cx="4.5" cy="3725.68" r="4"/><circle class="cls-2" cx="4.5" cy="3740.96" r="4"/><circle class="cls-2" cx="4.5" cy="3756.24" r="4"/><circle class="cls-2" cx="4.5" cy="3771.51" r="4"/><circle class="cls-2" cx="4.5" cy="3786.79" r="4"/><circle class="cls-2" cx="4.5" cy="3802.07" r="4"/><circle class="cls-2" cx="4.5" cy="3817.35" r="4"/><circle class="cls-2" cx="4.5" cy="3832.63" r="4"/><circle class="cls-2" cx="4.5" cy="3847.91" r="4"/><circle class="cls-2" cx="4.5" cy="3863.19" r="4"/><circle class="cls-2" cx="4.5" cy="3878.46" r="4"/><circle class="cls-2" cx="4.5" cy="3893.74" r="4"/><circle class="cls-2" cx="4.5" cy="3909.02" r="4"/><circle class="cls-2" cx="4.5" cy="3924.3" r="4"/><circle class="cls-2" cx="4.5" cy="3939.58" r="4"/><circle class="cls-2" cx="4.5" cy="3954.86" r="4"/><circle class="cls-2" cx="4.5" cy="3970.14" r="4"/><circle class="cls-2" cx="4.5" cy="3985.41" r="4"/><circle class="cls-2" cx="4.5" cy="4000.69" r="4"/><circle class="cls-2" cx="4.5" cy="4015.97" r="4"/><circle class="cls-2" cx="4.5" cy="4031.25" r="4"/><circle class="cls-2" cx="4.5" cy="4046.53" r="4"/><circle class="cls-2" cx="4.5" cy="4061.81" r="4"/><circle class="cls-2" cx="4.5" cy="4077.08" r="4"/><circle class="cls-2" cx="4.5" cy="4092.36" r="4"/><circle class="cls-2" cx="4.5" cy="4107.64" r="4"/><circle class="cls-2" cx="4.5" cy="4122.92" r="4"/><circle class="cls-2" cx="4.5" cy="4138.2" r="4"/><circle class="cls-2" cx="4.5" cy="4153.48" r="4"/><circle class="cls-2" cx="4.5" cy="4168.76" r="4"/><circle class="cls-2" cx="4.5" cy="4184.03" r="4"/><circle class="cls-2" cx="4.5" cy="4199.31" r="4"/><circle class="cls-2" cx="4.5" cy="4214.59" r="4"/><circle class="cls-2" cx="4.5" cy="4229.87" r="4"/><circle class="cls-2" cx="4.5" cy="4245.15" r="4"/><circle class="cls-2" cx="4.5" cy="4260.43" r="4"/><circle class="cls-2" cx="4.5" cy="4275.71" r="4"/><circle class="cls-2" cx="4.5" cy="4290.98" r="4"/><circle class="cls-2" cx="4.5" cy="4306.26" r="4"/><circle class="cls-2" cx="4.5" cy="4321.54" r="4"/><circle class="cls-2" cx="4.5" cy="4336.82" r="4"/><circle class="cls-2" cx="4.5" cy="4352.1" r="4"/><circle class="cls-2" cx="4.5" cy="4367.38" r="4"/><circle class="cls-2" cx="4.5" cy="4382.66" r="4"/><circle class="cls-2" cx="4.5" cy="4397.93" r="4"/><circle class="cls-2" cx="4.5" cy="4413.21" r="4"/><circle class="cls-2" cx="4.5" cy="4428.49" r="4"/><circle class="cls-2" cx="4.5" cy="4443.77" r="4"/><circle class="cls-2" cx="4.5" cy="4459.05" r="4"/><circle class="cls-2" cx="4.5" cy="4474.33" r="4"/><circle class="cls-2" cx="4.5" cy="4489.6" r="4"/><circle class="cls-2" cx="4.5" cy="4504.88" r="4"/><circle class="cls-2" cx="4.5" cy="4520.16" r="4"/><circle class="cls-2" cx="4.5" cy="4535.44" r="4"/><circle class="cls-2" cx="4.5" cy="4550.72" r="4"/><circle class="cls-2" cx="4.5" cy="4566" r="4"/><circle class="cls-2" cx="4.5" cy="4581.28" r="4"/><circle class="cls-2" cx="4.5" cy="4596.55" r="4"/><circle class="cls-2" cx="4.5" cy="4611.83" r="4"/><circle class="cls-2" cx="4.5" cy="4627.11" r="4"/><circle class="cls-2" cx="4.5" cy="4642.39" r="4"/><circle class="cls-2" cx="4.5" cy="4657.67" r="4"/><circle class="cls-2" cx="4.5" cy="4672.95" r="4"/><circle class="cls-2" cx="4.5" cy="4688.23" r="4"/><circle class="cls-2" cx="4.5" cy="4703.5" r="4"/><circle class="cls-2" cx="4.5" cy="4718.78" r="4"/><circle class="cls-2" cx="4.5" cy="4734.06" r="4"/><circle class="cls-2" cx="4.5" cy="4749.34" r="4"/><circle class="cls-2" cx="4.5" cy="4764.62" r="4"/><circle class="cls-2" cx="4.5" cy="4779.9" r="4"/><circle class="cls-2" cx="4.5" cy="4795.18" r="4"/><circle class="cls-2" cx="4.5" cy="4810.45" r="4"/><circle class="cls-2" cx="4.5" cy="4825.73" r="4"/><circle class="cls-2" cx="4.5" cy="4841.01" r="4"/><circle class="cls-2" cx="4.5" cy="4856.29" r="4"/><circle class="cls-2" cx="4.5" cy="4871.57" r="4"/><circle class="cls-2" cx="4.5" cy="4886.85" r="4"/><circle class="cls-2" cx="4.5" cy="4902.12" r="4"/><circle class="cls-2" cx="4.5" cy="4917.4" r="4"/><circle class="cls-2" cx="4.5" cy="4932.68" r="4"/><circle class="cls-2" cx="4.5" cy="4947.96" r="4"/><circle class="cls-2" cx="4.5" cy="4963.24" r="4"/><circle class="cls-2" cx="4.5" cy="4978.52" r="4"/><circle class="cls-2" cx="4.5" cy="4993.8" r="4"/><circle class="cls-2" cx="4.5" cy="5009.07" r="4"/><circle class="cls-2" cx="4.5" cy="5024.35" r="4"/><circle class="cls-2" cx="4.5" cy="5039.63" r="4"/><circle class="cls-2" cx="4.5" cy="5054.91" r="4"/><circle class="cls-2" cx="4.5" cy="5070.19" r="4"/><circle class="cls-2" cx="4.5" cy="5085.47" r="4"/><circle class="cls-2" cx="4.5" cy="5100.75" r="4"/><circle class="cls-2" cx="4.5" cy="5116.02" r="4"/><circle class="cls-2" cx="4.5" cy="5131.3" r="4"/><circle class="cls-2" cx="4.5" cy="5146.58" r="4"/><circle class="cls-2" cx="4.5" cy="5161.86" r="4"/><circle class="cls-2" cx="4.5" cy="5177.14" r="4"/><circle class="cls-2" cx="4.5" cy="5192.42" r="4"/><circle class="cls-2" cx="4.5" cy="5207.69" r="4"/><circle class="cls-2" cx="4.5" cy="5222.97" r="4"/><circle class="cls-2" cx="4.5" cy="5238.25" r="4"/><circle class="cls-2" cx="4.5" cy="5253.53" r="4"/><circle class="cls-2" cx="4.5" cy="5268.81" r="4"/><circle class="cls-2" cx="4.5" cy="5284.09" r="4"/><circle class="cls-2" cx="4.5" cy="5299.37" r="4"/><circle class="cls-2" cx="4.5" cy="5314.64" r="4"/><circle class="cls-2" cx="4.5" cy="5329.92" r="4"/><circle class="cls-2" cx="4.5" cy="5345.2" r="4"/><circle class="cls-2" cx="4.5" cy="5360.48" r="4"/><circle class="cls-2" cx="4.5" cy="5375.76" r="4"/><circle class="cls-2" cx="4.5" cy="5391.04" r="4"/><circle class="cls-2" cx="4.5" cy="5406.32" r="4"/><circle class="cls-2" cx="4.5" cy="5421.59" r="4"/><circle class="cls-2" cx="4.5" cy="5436.87" r="4"/><circle class="cls-2" cx="4.5" cy="5452.15" r="4"/><circle class="cls-2" cx="4.5" cy="5467.43" r="4"/><circle class="cls-2" cx="4.5" cy="5482.71" r="4"/><circle class="cls-2" cx="4.5" cy="5497.99" r="4"/><circle class="cls-2" cx="4.5" cy="5513.27" r="4"/><circle class="cls-2" cx="4.5" cy="5528.54" r="4"/><circle class="cls-2" cx="4.5" cy="5543.82" r="4"/><circle class="cls-2" cx="4.5" cy="5559.1" r="4"/><circle class="cls-2" cx="4.5" cy="5574.38" r="4"/><circle class="cls-2" cx="4.5" cy="5589.66" r="4"/><circle class="cls-2" cx="4.5" cy="5604.94" r="4"/><circle class="cls-2" cx="4.5" cy="5620.21" r="4"/><circle class="cls-2" cx="4.5" cy="5635.49" r="4"/><circle class="cls-2" cx="4.5" cy="5650.77" r="4"/><circle class="cls-2" cx="4.5" cy="5666.05" r="4"/><circle class="cls-2" cx="4.5" cy="5681.33" r="4"/><circle class="cls-2" cx="4.5" cy="5696.61" r="4"/><circle class="cls-2" cx="4.5" cy="5711.89" r="4"/><circle class="cls-2" cx="4.5" cy="5727.16" r="4"/><circle class="cls-2" cx="4.5" cy="5742.44" r="4"/><circle class="cls-2" cx="4.5" cy="5757.72" r="4"/><circle class="cls-2" cx="16.5" cy="4" r="4"/><circle class="cls-2" cx="16.5" cy="19.28" r="4"/><circle class="cls-2" cx="16.5" cy="34.56" r="4"/><circle class="cls-2" cx="16.5" cy="49.84" r="4"/><circle class="cls-2" cx="16.5" cy="65.11" r="4"/><circle class="cls-2" cx="16.5" cy="80.39" r="4"/><circle class="cls-2" cx="16.5" cy="95.67" r="4"/><circle class="cls-2" cx="16.5" cy="110.95" r="4"/><circle class="cls-2" cx="16.5" cy="126.23" r="4"/><circle class="cls-2" cx="16.5" cy="141.51" r="4"/><circle class="cls-2" cx="16.5" cy="156.79" r="4"/><circle class="cls-2" cx="16.5" cy="172.06" r="4"/><circle class="cls-2" cx="16.5" cy="187.34" r="4"/><circle class="cls-2" cx="16.5" cy="202.62" r="4"/><circle class="cls-2" cx="16.5" cy="217.9" r="4"/><circle class="cls-2" cx="16.5" cy="233.18" r="4"/><circle class="cls-2" cx="16.5" cy="248.46" r="4"/><circle class="cls-2" cx="16.5" cy="263.73" r="4"/><circle class="cls-2" cx="16.5" cy="279.01" r="4"/><circle class="cls-2" cx="16.5" cy="294.29" r="4"/><circle class="cls-2" cx="16.5" cy="309.57" r="4"/><circle class="cls-2" cx="16.5" cy="324.85" r="4"/><circle class="cls-2" cx="16.5" cy="340.13" r="4"/><circle class="cls-2" cx="16.5" cy="355.41" r="4"/><circle class="cls-2" cx="16.5" cy="370.68" r="4"/><circle class="cls-2" cx="16.5" cy="385.96" r="4"/><circle class="cls-2" cx="16.5" cy="401.24" r="4"/><circle class="cls-2" cx="16.5" cy="416.52" r="4"/><circle class="cls-2" cx="16.5" cy="431.8" r="4"/><circle class="cls-2" cx="16.5" cy="447.08" r="4"/><circle class="cls-2" cx="16.5" cy="462.36" r="4"/><circle class="cls-2" cx="16.5" cy="477.63" r="4"/><circle class="cls-2" cx="16.5" cy="492.91" r="4"/><circle class="cls-2" cx="16.5" cy="508.19" r="4"/><circle class="cls-2" cx="16.5" cy="523.47" r="4"/><circle class="cls-2" cx="16.5" cy="538.75" r="4"/><circle class="cls-2" cx="16.5" cy="554.03" r="4"/><circle class="cls-2" cx="16.5" cy="569.31" r="4"/><circle class="cls-2" cx="16.5" cy="584.58" r="4"/><circle class="cls-2" cx="16.5" cy="599.86" r="4"/><circle class="cls-2" cx="16.5" cy="615.14" r="4"/><circle class="cls-2" cx="16.5" cy="630.42" r="4"/><circle class="cls-2" cx="16.5" cy="645.7" r="4"/><circle class="cls-2" cx="16.5" cy="660.98" r="4"/><circle class="cls-2" cx="16.5" cy="676.25" r="4"/><circle class="cls-2" cx="16.5" cy="691.53" r="4"/><circle class="cls-2" cx="16.5" cy="706.81" r="4"/><circle class="cls-2" cx="16.5" cy="722.09" r="4"/><circle class="cls-2" cx="16.5" cy="737.37" r="4"/><circle class="cls-2" cx="16.5" cy="752.65" r="4"/><circle class="cls-2" cx="16.5" cy="767.93" r="4"/><circle class="cls-2" cx="16.5" cy="783.2" r="4"/><circle class="cls-2" cx="16.5" cy="798.48" r="4"/><circle class="cls-2" cx="16.5" cy="813.76" r="4"/><circle class="cls-2" cx="16.5" cy="829.04" r="4"/><circle class="cls-2" cx="16.5" cy="844.32" r="4"/><circle class="cls-2" cx="16.5" cy="859.6" r="4"/><circle class="cls-2" cx="16.5" cy="874.88" r="4"/><circle class="cls-2" cx="16.5" cy="890.15" r="4"/><circle class="cls-2" cx="16.5" cy="905.43" r="4"/><circle class="cls-2" cx="16.5" cy="920.71" r="4"/><circle class="cls-2" cx="16.5" cy="935.99" r="4"/><circle class="cls-2" cx="16.5" cy="951.27" r="4"/><circle class="cls-2" cx="16.5" cy="966.55" r="4"/><circle class="cls-2" cx="16.5" cy="981.82" r="4"/><circle class="cls-2" cx="16.5" cy="997.1" r="4"/><circle class="cls-2" cx="16.5" cy="1012.38" r="4"/><circle class="cls-2" cx="16.5" cy="1027.66" r="4"/><circle class="cls-2" cx="16.5" cy="1042.94" r="4"/><circle class="cls-2" cx="16.5" cy="1058.22" r="4"/><circle class="cls-2" cx="16.5" cy="1073.5" r="4"/><circle class="cls-2" cx="16.5" cy="1088.77" r="4"/><circle class="cls-2" cx="16.5" cy="1104.05" r="4"/><circle class="cls-2" cx="16.5" cy="1119.33" r="4"/><circle class="cls-2" cx="16.5" cy="1134.61" r="4"/><circle class="cls-2" cx="16.5" cy="1149.89" r="4"/><circle class="cls-2" cx="16.5" cy="1165.17" r="4"/><circle class="cls-2" cx="16.5" cy="1180.45" r="4"/><circle class="cls-2" cx="16.5" cy="1195.72" r="4"/><circle class="cls-2" cx="16.5" cy="1211" r="4"/><circle class="cls-2" cx="16.5" cy="1226.28" r="4"/><circle class="cls-2" cx="16.5" cy="1241.56" r="4"/><circle class="cls-2" cx="16.5" cy="1256.84" r="4"/><circle class="cls-2" cx="16.5" cy="1272.12" r="4"/><circle class="cls-2" cx="16.5" cy="1287.4" r="4"/><circle class="cls-2" cx="16.5" cy="1302.67" r="4"/><circle class="cls-2" cx="16.5" cy="1317.95" r="4"/><circle class="cls-2" cx="16.5" cy="1333.23" r="4"/><circle class="cls-2" cx="16.5" cy="1348.51" r="4"/><circle class="cls-2" cx="16.5" cy="1363.79" r="4"/><circle class="cls-2" cx="16.5" cy="1379.07" r="4"/><circle class="cls-2" cx="16.5" cy="1394.34" r="4"/><circle class="cls-2" cx="16.5" cy="1409.62" r="4"/><circle class="cls-2" cx="16.5" cy="1424.9" r="4"/><circle class="cls-2" cx="16.5" cy="1440.18" r="4"/><circle class="cls-2" cx="16.5" cy="1455.46" r="4"/><circle class="cls-2" cx="16.5" cy="1470.74" r="4"/><circle class="cls-2" cx="16.5" cy="1486.02" r="4"/><circle class="cls-2" cx="16.5" cy="1501.29" r="4"/><circle class="cls-2" cx="16.5" cy="1516.57" r="4"/><circle class="cls-2" cx="16.5" cy="1531.85" r="4"/><circle class="cls-2" cx="16.5" cy="1547.13" r="4"/><circle class="cls-2" cx="16.5" cy="1562.41" r="4"/><circle class="cls-2" cx="16.5" cy="1577.69" r="4"/><circle class="cls-2" cx="16.5" cy="1592.97" r="4"/><circle class="cls-2" cx="16.5" cy="1608.24" r="4"/><circle class="cls-2" cx="16.5" cy="1623.52" r="4"/><circle class="cls-2" cx="16.5" cy="1638.8" r="4"/><circle class="cls-2" cx="16.5" cy="1654.08" r="4"/><circle class="cls-2" cx="16.5" cy="1669.36" r="4"/><circle class="cls-2" cx="16.5" cy="1684.64" r="4"/><circle class="cls-2" cx="16.5" cy="1699.92" r="4"/><circle class="cls-2" cx="16.5" cy="1715.19" r="4"/><circle class="cls-2" cx="16.5" cy="1730.47" r="4"/><circle class="cls-2" cx="16.5" cy="1745.75" r="4"/><circle class="cls-2" cx="16.5" cy="1761.03" r="4"/><circle class="cls-2" cx="16.5" cy="1776.31" r="4"/><circle class="cls-2" cx="16.5" cy="1791.59" r="4"/><circle class="cls-2" cx="16.5" cy="1806.86" r="4"/><circle class="cls-2" cx="16.5" cy="1822.14" r="4"/><circle class="cls-2" cx="16.5" cy="1837.42" r="4"/><circle class="cls-2" cx="16.5" cy="1852.7" r="4"/><circle class="cls-2" cx="16.5" cy="1867.98" r="4"/><circle class="cls-2" cx="16.5" cy="1883.26" r="4"/><circle class="cls-2" cx="16.5" cy="1898.54" r="4"/><circle class="cls-2" cx="16.5" cy="1913.81" r="4"/><circle class="cls-2" cx="16.5" cy="1929.09" r="4"/><circle class="cls-2" cx="16.5" cy="1944.37" r="4"/><circle class="cls-2" cx="16.5" cy="1959.65" r="4"/><circle class="cls-2" cx="16.5" cy="1974.93" r="4"/><circle class="cls-2" cx="16.5" cy="1990.21" r="4"/><circle class="cls-2" cx="16.5" cy="2005.49" r="4"/><circle class="cls-2" cx="16.5" cy="2020.76" r="4"/><circle class="cls-2" cx="16.5" cy="2036.04" r="4"/><circle class="cls-2" cx="16.5" cy="2051.32" r="4"/><circle class="cls-2" cx="16.5" cy="2066.6" r="4"/><circle class="cls-2" cx="16.5" cy="2081.88" r="4"/><circle class="cls-2" cx="16.5" cy="2097.16" r="4"/><circle class="cls-2" cx="16.5" cy="2112.44" r="4"/><circle class="cls-2" cx="16.5" cy="2127.71" r="4"/><circle class="cls-2" cx="16.5" cy="2142.99" r="4"/><circle class="cls-2" cx="16.5" cy="2158.27" r="4"/><circle class="cls-2" cx="16.5" cy="2173.55" r="4"/><circle class="cls-2" cx="16.5" cy="2188.83" r="4"/><circle class="cls-2" cx="16.5" cy="2204.11" r="4"/><circle class="cls-2" cx="16.5" cy="2219.38" r="4"/><circle class="cls-2" cx="16.5" cy="2234.66" r="4"/><circle class="cls-2" cx="16.5" cy="2249.94" r="4"/><circle class="cls-2" cx="16.5" cy="2265.22" r="4"/><circle class="cls-2" cx="16.5" cy="2280.5" r="4"/><circle class="cls-2" cx="16.5" cy="2295.78" r="4"/><circle class="cls-2" cx="16.5" cy="2311.06" r="4"/><circle class="cls-2" cx="16.5" cy="2326.33" r="4"/><circle class="cls-2" cx="16.5" cy="2341.61" r="4"/><circle class="cls-2" cx="16.5" cy="2356.89" r="4"/><circle class="cls-2" cx="16.5" cy="2372.17" r="4"/><circle class="cls-2" cx="16.5" cy="2387.45" r="4"/><circle class="cls-2" cx="16.5" cy="2402.73" r="4"/><circle class="cls-2" cx="16.5" cy="2418.01" r="4"/><circle class="cls-2" cx="16.5" cy="2433.28" r="4"/><circle class="cls-2" cx="16.5" cy="2448.56" r="4"/><circle class="cls-2" cx="16.5" cy="2463.84" r="4"/><circle class="cls-2" cx="16.5" cy="2479.12" r="4"/><circle class="cls-2" cx="16.5" cy="2494.4" r="4"/><circle class="cls-2" cx="16.5" cy="2509.68" r="4"/><circle class="cls-2" cx="16.5" cy="2524.95" r="4"/><circle class="cls-2" cx="16.5" cy="2540.23" r="4"/><circle class="cls-2" cx="16.5" cy="2555.51" r="4"/><circle class="cls-2" cx="16.5" cy="2570.79" r="4"/><circle class="cls-2" cx="16.5" cy="2586.07" r="4"/><circle class="cls-2" cx="16.5" cy="2601.35" r="4"/><circle class="cls-2" cx="16.5" cy="2616.63" r="4"/><circle class="cls-2" cx="16.5" cy="2631.9" r="4"/><circle class="cls-2" cx="16.5" cy="2647.18" r="4"/><circle class="cls-2" cx="16.5" cy="2662.46" r="4"/><circle class="cls-2" cx="16.5" cy="2677.74" r="4"/><circle class="cls-2" cx="16.5" cy="2693.02" r="4"/><circle class="cls-2" cx="16.5" cy="2708.3" r="4"/><circle class="cls-2" cx="16.5" cy="2723.58" r="4"/><circle class="cls-2" cx="16.5" cy="2738.85" r="4"/><circle class="cls-2" cx="16.5" cy="2754.13" r="4"/><circle class="cls-2" cx="16.5" cy="2769.41" r="4"/><circle class="cls-2" cx="16.5" cy="2784.69" r="4"/><circle class="cls-2" cx="16.5" cy="2799.97" r="4"/><circle class="cls-2" cx="16.5" cy="2815.25" r="4"/><circle class="cls-2" cx="16.5" cy="2830.53" r="4"/><circle class="cls-2" cx="16.5" cy="2845.8" r="4"/><circle class="cls-2" cx="16.5" cy="2861.08" r="4"/><circle class="cls-2" cx="16.5" cy="2876.36" r="4"/><circle class="cls-2" cx="16.5" cy="2891.64" r="4"/><circle class="cls-2" cx="16.5" cy="2906.92" r="4"/><circle class="cls-2" cx="16.5" cy="2922.2" r="4"/><circle class="cls-2" cx="16.5" cy="2937.47" r="4"/><circle class="cls-2" cx="16.5" cy="2952.75" r="4"/><circle class="cls-2" cx="16.5" cy="2968.03" r="4"/><circle class="cls-2" cx="16.5" cy="2983.31" r="4"/><circle class="cls-2" cx="16.5" cy="2998.59" r="4"/><circle class="cls-2" cx="16.5" cy="3013.87" r="4"/><circle class="cls-2" cx="16.5" cy="3029.15" r="4"/><circle class="cls-2" cx="16.5" cy="3044.42" r="4"/><circle class="cls-2" cx="16.5" cy="3059.7" r="4"/><circle class="cls-2" cx="16.5" cy="3074.98" r="4"/><circle class="cls-2" cx="16.5" cy="3090.26" r="4"/><circle class="cls-2" cx="16.5" cy="3105.54" r="4"/><circle class="cls-2" cx="16.5" cy="3120.82" r="4"/><circle class="cls-2" cx="16.5" cy="3136.1" r="4"/><circle class="cls-2" cx="16.5" cy="3151.37" r="4"/><circle class="cls-2" cx="16.5" cy="3166.65" r="4"/><circle class="cls-2" cx="16.5" cy="3181.93" r="4"/><circle class="cls-2" cx="16.5" cy="3197.21" r="4"/><circle class="cls-2" cx="16.5" cy="3212.49" r="4"/><circle class="cls-2" cx="16.5" cy="3227.77" r="4"/><circle class="cls-2" cx="16.5" cy="3243.05" r="4"/><circle class="cls-2" cx="16.5" cy="3258.32" r="4"/><circle class="cls-2" cx="16.5" cy="3273.6" r="4"/><circle class="cls-2" cx="16.5" cy="3288.88" r="4"/><circle class="cls-2" cx="16.5" cy="3304.16" r="4"/><circle class="cls-2" cx="16.5" cy="3319.44" r="4"/><circle class="cls-2" cx="16.5" cy="3334.72" r="4"/><circle class="cls-2" cx="16.5" cy="3349.99" r="4"/><circle class="cls-2" cx="16.5" cy="3365.27" r="4"/><circle class="cls-2" cx="16.5" cy="3380.55" r="4"/><circle class="cls-2" cx="16.5" cy="3395.83" r="4"/><circle class="cls-2" cx="16.5" cy="3411.11" r="4"/><circle class="cls-2" cx="16.5" cy="3426.39" r="4"/><circle class="cls-2" cx="16.5" cy="3441.67" r="4"/><circle class="cls-2" cx="16.5" cy="3456.94" r="4"/><circle class="cls-2" cx="16.5" cy="3472.22" r="4"/><circle class="cls-2" cx="16.5" cy="3487.5" r="4"/><circle class="cls-2" cx="16.5" cy="3502.78" r="4"/><circle class="cls-2" cx="16.5" cy="3518.06" r="4"/><circle class="cls-2" cx="16.5" cy="3533.34" r="4"/><circle class="cls-2" cx="16.5" cy="3548.62" r="4"/><circle class="cls-2" cx="16.5" cy="3563.89" r="4"/><circle class="cls-2" cx="16.5" cy="3579.17" r="4"/><circle class="cls-2" cx="16.5" cy="3594.45" r="4"/><circle class="cls-2" cx="16.5" cy="3609.73" r="4"/><circle class="cls-2" cx="16.5" cy="3625.01" r="4"/><circle class="cls-2" cx="16.5" cy="3640.29" r="4"/><circle class="cls-2" cx="16.5" cy="3655.56" r="4"/><circle class="cls-2" cx="16.5" cy="3670.84" r="4"/><circle class="cls-2" cx="16.5" cy="3686.12" r="4"/><circle class="cls-2" cx="16.5" cy="3701.4" r="4"/><circle class="cls-2" cx="16.5" cy="3716.68" r="4"/><circle class="cls-2" cx="16.5" cy="3731.96" r="4"/><circle class="cls-2" cx="16.5" cy="3747.24" r="4"/><circle class="cls-2" cx="16.5" cy="3762.51" r="4"/><circle class="cls-2" cx="16.5" cy="3777.79" r="4"/><circle class="cls-2" cx="16.5" cy="3793.07" r="4"/><circle class="cls-2" cx="16.5" cy="3808.35" r="4"/><circle class="cls-2" cx="16.5" cy="3823.63" r="4"/><circle class="cls-2" cx="16.5" cy="3838.91" r="4"/><circle class="cls-2" cx="16.5" cy="3854.19" r="4"/><circle class="cls-2" cx="16.5" cy="3869.46" r="4"/><circle class="cls-2" cx="16.5" cy="3884.74" r="4"/><circle class="cls-2" cx="16.5" cy="3900.02" r="4"/><circle class="cls-2" cx="16.5" cy="3915.3" r="4"/><circle class="cls-2" cx="16.5" cy="3930.58" r="4"/><circle class="cls-2" cx="16.5" cy="3945.86" r="4"/><circle class="cls-2" cx="16.5" cy="3961.14" r="4"/><circle class="cls-2" cx="16.5" cy="3976.41" r="4"/><circle class="cls-2" cx="16.5" cy="3991.69" r="4"/><circle class="cls-2" cx="16.5" cy="4006.97" r="4"/><circle class="cls-2" cx="16.5" cy="4022.25" r="4"/><circle class="cls-2" cx="16.5" cy="4037.53" r="4"/><circle class="cls-2" cx="16.5" cy="4052.81" r="4"/><circle class="cls-2" cx="16.5" cy="4068.08" r="4"/><circle class="cls-2" cx="16.5" cy="4083.36" r="4"/><circle class="cls-2" cx="16.5" cy="4098.64" r="4"/><circle class="cls-2" cx="16.5" cy="4113.92" r="4"/><circle class="cls-2" cx="16.5" cy="4129.2" r="4"/><circle class="cls-2" cx="16.5" cy="4144.48" r="4"/><circle class="cls-2" cx="16.5" cy="4159.76" r="4"/><circle class="cls-2" cx="16.5" cy="4175.03" r="4"/><circle class="cls-2" cx="16.5" cy="4190.31" r="4"/><circle class="cls-2" cx="16.5" cy="4205.59" r="4"/><circle class="cls-2" cx="16.5" cy="4220.87" r="4"/><circle class="cls-2" cx="16.5" cy="4236.15" r="4"/><circle class="cls-2" cx="16.5" cy="4251.43" r="4"/><circle class="cls-2" cx="16.5" cy="4266.71" r="4"/><circle class="cls-2" cx="16.5" cy="4281.98" r="4"/><circle class="cls-2" cx="16.5" cy="4297.26" r="4"/><circle class="cls-2" cx="16.5" cy="4312.54" r="4"/><circle class="cls-2" cx="16.5" cy="4327.82" r="4"/><circle class="cls-2" cx="16.5" cy="4343.1" r="4"/><circle class="cls-2" cx="16.5" cy="4358.38" r="4"/><circle class="cls-2" cx="16.5" cy="4373.66" r="4"/><circle class="cls-2" cx="16.5" cy="4388.93" r="4"/><circle class="cls-2" cx="16.5" cy="4404.21" r="4"/><circle class="cls-2" cx="16.5" cy="4419.49" r="4"/><circle class="cls-2" cx="16.5" cy="4434.77" r="4"/><circle class="cls-2" cx="16.5" cy="4450.05" r="4"/><circle class="cls-2" cx="16.5" cy="4465.33" r="4"/><circle class="cls-2" cx="16.5" cy="4480.6" r="4"/><circle class="cls-2" cx="16.5" cy="4495.88" r="4"/><circle class="cls-2" cx="16.5" cy="4511.16" r="4"/><circle class="cls-2" cx="16.5" cy="4526.44" r="4"/><circle class="cls-2" cx="16.5" cy="4541.72" r="4"/><circle class="cls-2" cx="16.5" cy="4557" r="4"/><circle class="cls-2" cx="16.5" cy="4572.28" r="4"/><circle class="cls-2" cx="16.5" cy="4587.55" r="4"/><circle class="cls-2" cx="16.5" cy="4602.83" r="4"/><circle class="cls-2" cx="16.5" cy="4618.11" r="4"/><circle class="cls-2" cx="16.5" cy="4633.39" r="4"/><circle class="cls-2" cx="16.5" cy="4648.67" r="4"/><circle class="cls-2" cx="16.5" cy="4663.95" r="4"/><circle class="cls-2" cx="16.5" cy="4679.23" r="4"/><circle class="cls-2" cx="16.5" cy="4694.5" r="4"/><circle class="cls-2" cx="16.5" cy="4709.78" r="4"/><circle class="cls-2" cx="16.5" cy="4725.06" r="4"/><circle class="cls-2" cx="16.5" cy="4740.34" r="4"/><circle class="cls-2" cx="16.5" cy="4755.62" r="4"/><circle class="cls-2" cx="16.5" cy="4770.9" r="4"/><circle class="cls-2" cx="16.5" cy="4786.18" r="4"/><circle class="cls-2" cx="16.5" cy="4801.45" r="4"/><circle class="cls-2" cx="16.5" cy="4816.73" r="4"/><circle class="cls-2" cx="16.5" cy="4832.01" r="4"/><circle class="cls-2" cx="16.5" cy="4847.29" r="4"/><circle class="cls-2" cx="16.5" cy="4862.57" r="4"/><circle class="cls-2" cx="16.5" cy="4877.85" r="4"/><circle class="cls-2" cx="16.5" cy="4893.12" r="4"/><circle class="cls-2" cx="16.5" cy="4908.4" r="4"/><circle class="cls-2" cx="16.5" cy="4923.68" r="4"/><circle class="cls-2" cx="16.5" cy="4938.96" r="4"/><circle class="cls-2" cx="16.5" cy="4954.24" r="4"/><circle class="cls-2" cx="16.5" cy="4969.52" r="4"/><circle class="cls-2" cx="16.5" cy="4984.8" r="4"/><circle class="cls-2" cx="16.5" cy="5000.07" r="4"/><circle class="cls-2" cx="16.5" cy="5015.35" r="4"/><circle class="cls-2" cx="16.5" cy="5030.63" r="4"/><circle class="cls-2" cx="16.5" cy="5045.91" r="4"/><circle class="cls-2" cx="16.5" cy="5061.19" r="4"/><circle class="cls-2" cx="16.5" cy="5076.47" r="4"/><circle class="cls-2" cx="16.5" cy="5091.75" r="4"/><circle class="cls-2" cx="16.5" cy="5107.02" r="4"/><circle class="cls-2" cx="16.5" cy="5122.3" r="4"/><circle class="cls-2" cx="16.5" cy="5137.58" r="4"/><circle class="cls-2" cx="16.5" cy="5152.86" r="4"/><circle class="cls-2" cx="16.5" cy="5168.14" r="4"/><circle class="cls-2" cx="16.5" cy="5183.42" r="4"/><circle class="cls-2" cx="16.5" cy="5198.69" r="4"/><circle class="cls-2" cx="16.5" cy="5213.97" r="4"/><circle class="cls-2" cx="16.5" cy="5229.25" r="4"/><circle class="cls-2" cx="16.5" cy="5244.53" r="4"/><circle class="cls-2" cx="16.5" cy="5259.81" r="4"/><circle class="cls-2" cx="16.5" cy="5275.09" r="4"/><circle class="cls-2" cx="16.5" cy="5290.37" r="4"/><circle class="cls-2" cx="16.5" cy="5305.64" r="4"/><circle class="cls-2" cx="16.5" cy="5320.92" r="4"/><circle class="cls-2" cx="16.5" cy="5336.2" r="4"/><circle class="cls-2" cx="16.5" cy="5351.48" r="4"/><circle class="cls-2" cx="16.5" cy="5366.76" r="4"/><circle class="cls-2" cx="16.5" cy="5382.04" r="4"/><circle class="cls-2" cx="16.5" cy="5397.32" r="4"/><circle class="cls-2" cx="16.5" cy="5412.59" r="4"/><circle class="cls-2" cx="16.5" cy="5427.87" r="4"/><circle class="cls-2" cx="16.5" cy="5443.15" r="4"/><circle class="cls-2" cx="16.5" cy="5458.43" r="4"/><circle class="cls-2" cx="16.5" cy="5473.71" r="4"/><circle class="cls-2" cx="16.5" cy="5488.99" r="4"/><circle class="cls-2" cx="16.5" cy="5504.27" r="4"/><circle class="cls-2" cx="16.5" cy="5519.54" r="4"/><circle class="cls-2" cx="16.5" cy="5534.82" r="4"/><circle class="cls-2" cx="16.5" cy="5550.1" r="4"/><circle class="cls-2" cx="16.5" cy="5565.38" r="4"/><circle class="cls-2" cx="16.5" cy="5580.66" r="4"/><circle class="cls-2" cx="16.5" cy="5595.94" r="4"/><circle class="cls-2" cx="16.5" cy="5611.21" r="4"/><circle class="cls-2" cx="16.5" cy="5626.49" r="4"/><circle class="cls-2" cx="16.5" cy="5641.77" r="4"/><circle class="cls-2" cx="16.5" cy="5657.05" r="4"/><circle class="cls-2" cx="16.5" cy="5672.33" r="4"/><circle class="cls-2" cx="16.5" cy="5687.61" r="4"/><circle class="cls-2" cx="16.5" cy="5702.89" r="4"/><circle class="cls-2" cx="16.5" cy="5718.16" r="4"/><circle class="cls-2" cx="16.5" cy="5733.44" r="4"/><circle class="cls-2" cx="16.5" cy="5748.72" r="4"/><circle class="cls-2" cx="16.5" cy="5764" r="4"/></svg>