<svg id="Layer_1" data-name="Layer 1" xmlns="http://www.w3.org/2000/svg" width="5" height="1444" viewBox="0 0 5 1444"><defs><style>.cls-1{fill:#fff;}.cls-2{fill:#193279;}</style></defs><title>dots-bg</title><rect class="cls-1" width="5" height="1444"/><circle class="cls-2" cx="1" cy="3" r="1"/><circle class="cls-2" cx="1" cy="6.82" r="1"/><circle class="cls-2" cx="1" cy="10.64" r="1"/><circle class="cls-2" cx="1" cy="14.46" r="1"/><circle class="cls-2" cx="1" cy="18.28" r="1"/><circle class="cls-2" cx="1" cy="22.1" r="1"/><circle class="cls-2" cx="1" cy="25.92" r="1"/><circle class="cls-2" cx="1" cy="29.74" r="1"/><circle class="cls-2" cx="1" cy="33.56" r="1"/><circle class="cls-2" cx="1" cy="37.38" r="1"/><circle class="cls-2" cx="1" cy="41.2" r="1"/><circle class="cls-2" cx="1" cy="45.02" r="1"/><circle class="cls-2" cx="1" cy="48.84" r="1"/><circle class="cls-2" cx="1" cy="52.66" r="1"/><circle class="cls-2" cx="1" cy="56.47" r="1"/><circle class="cls-2" cx="1" cy="60.29" r="1"/><circle class="cls-2" cx="1" cy="64.11" r="1"/><circle class="cls-2" cx="1" cy="67.93" r="1"/><circle class="cls-2" cx="1" cy="71.75" r="1"/><circle class="cls-2" cx="1" cy="75.57" r="1"/><circle class="cls-2" cx="1" cy="79.39" r="1"/><circle class="cls-2" cx="1" cy="83.21" r="1"/><circle class="cls-2" cx="1" cy="87.03" r="1"/><circle class="cls-2" cx="1" cy="90.85" r="1"/><circle class="cls-2" cx="1" cy="94.67" r="1"/><circle class="cls-2" cx="1" cy="98.49" r="1"/><circle class="cls-2" cx="1" cy="102.31" r="1"/><circle class="cls-2" cx="1" cy="106.13" r="1"/><circle class="cls-2" cx="1" cy="109.95" r="1"/><circle class="cls-2" cx="1" cy="113.77" r="1"/><circle class="cls-2" cx="1" cy="117.59" r="1"/><circle class="cls-2" cx="1" cy="121.41" r="1"/><circle class="cls-2" cx="1" cy="125.23" r="1"/><circle class="cls-2" cx="1" cy="129.05" r="1"/><circle class="cls-2" cx="1" cy="132.87" r="1"/><circle class="cls-2" cx="1" cy="136.69" r="1"/><circle class="cls-2" cx="1" cy="140.51" r="1"/><circle class="cls-2" cx="1" cy="144.33" r="1"/><circle class="cls-2" cx="1" cy="148.15" r="1"/><circle class="cls-2" cx="1" cy="151.97" r="1"/><circle class="cls-2" cx="1" cy="155.79" r="1"/><circle class="cls-2" cx="1" cy="159.6" r="1"/><circle class="cls-2" cx="1" cy="163.42" r="1"/><circle class="cls-2" cx="1" cy="167.24" r="1"/><circle class="cls-2" cx="1" cy="171.06" r="1"/><circle class="cls-2" cx="1" cy="174.88" r="1"/><circle class="cls-2" cx="1" cy="178.7" r="1"/><circle class="cls-2" cx="1" cy="182.52" r="1"/><circle class="cls-2" cx="1" cy="186.34" r="1"/><circle class="cls-2" cx="1" cy="190.16" r="1"/><circle class="cls-2" cx="1" cy="193.98" r="1"/><circle class="cls-2" cx="1" cy="197.8" r="1"/><circle class="cls-2" cx="1" cy="201.62" r="1"/><circle class="cls-2" cx="1" cy="205.44" r="1"/><circle class="cls-2" cx="1" cy="209.26" r="1"/><circle class="cls-2" cx="1" cy="213.08" r="1"/><circle class="cls-2" cx="1" cy="216.9" r="1"/><circle class="cls-2" cx="1" cy="220.72" r="1"/><circle class="cls-2" cx="1" cy="224.54" r="1"/><circle class="cls-2" cx="1" cy="228.36" r="1"/><circle class="cls-2" cx="1" cy="232.18" r="1"/><circle class="cls-2" cx="1" cy="236" r="1"/><circle class="cls-2" cx="1" cy="239.82" r="1"/><circle class="cls-2" cx="1" cy="243.64" r="1"/><circle class="cls-2" cx="1" cy="247.46" r="1"/><circle class="cls-2" cx="1" cy="251.28" r="1"/><circle class="cls-2" cx="1" cy="255.1" r="1"/><circle class="cls-2" cx="1" cy="258.92" r="1"/><circle class="cls-2" cx="1" cy="262.73" r="1"/><circle class="cls-2" cx="1" cy="266.55" r="1"/><circle class="cls-2" cx="1" cy="270.37" r="1"/><circle class="cls-2" cx="1" cy="274.19" r="1"/><circle class="cls-2" cx="1" cy="278.01" r="1"/><circle class="cls-2" cx="1" cy="281.83" r="1"/><circle class="cls-2" cx="1" cy="285.65" r="1"/><circle class="cls-2" cx="1" cy="289.47" r="1"/><circle class="cls-2" cx="1" cy="293.29" r="1"/><circle class="cls-2" cx="1" cy="297.11" r="1"/><circle class="cls-2" cx="1" cy="300.93" r="1"/><circle class="cls-2" cx="1" cy="304.75" r="1"/><circle class="cls-2" cx="1" cy="308.57" r="1"/><circle class="cls-2" cx="1" cy="312.39" r="1"/><circle class="cls-2" cx="1" cy="316.21" r="1"/><circle class="cls-2" cx="1" cy="320.03" r="1"/><circle class="cls-2" cx="1" cy="323.85" r="1"/><circle class="cls-2" cx="1" cy="327.67" r="1"/><circle class="cls-2" cx="1" cy="331.49" r="1"/><circle class="cls-2" cx="1" cy="335.31" r="1"/><circle class="cls-2" cx="1" cy="339.13" r="1"/><circle class="cls-2" cx="1" cy="342.95" r="1"/><circle class="cls-2" cx="1" cy="346.77" r="1"/><circle class="cls-2" cx="1" cy="350.59" r="1"/><circle class="cls-2" cx="1" cy="354.41" r="1"/><circle class="cls-2" cx="1" cy="358.23" r="1"/><circle class="cls-2" cx="1" cy="362.05" r="1"/><circle class="cls-2" cx="1" cy="365.86" r="1"/><circle class="cls-2" cx="1" cy="369.68" r="1"/><circle class="cls-2" cx="1" cy="373.5" r="1"/><circle class="cls-2" cx="1" cy="377.32" r="1"/><circle class="cls-2" cx="1" cy="381.14" r="1"/><circle class="cls-2" cx="1" cy="384.96" r="1"/><circle class="cls-2" cx="1" cy="388.78" r="1"/><circle class="cls-2" cx="1" cy="392.6" r="1"/><circle class="cls-2" cx="1" cy="396.42" r="1"/><circle class="cls-2" cx="1" cy="400.24" r="1"/><circle class="cls-2" cx="1" cy="404.06" r="1"/><circle class="cls-2" cx="1" cy="407.88" r="1"/><circle class="cls-2" cx="1" cy="411.7" r="1"/><circle class="cls-2" cx="1" cy="415.52" r="1"/><circle class="cls-2" cx="1" cy="419.34" r="1"/><circle class="cls-2" cx="1" cy="423.16" r="1"/><circle class="cls-2" cx="1" cy="426.98" r="1"/><circle class="cls-2" cx="1" cy="430.8" r="1"/><circle class="cls-2" cx="1" cy="434.62" r="1"/><circle class="cls-2" cx="1" cy="438.44" r="1"/><circle class="cls-2" cx="1" cy="442.26" r="1"/><circle class="cls-2" cx="1" cy="446.08" r="1"/><circle class="cls-2" cx="1" cy="449.9" r="1"/><circle class="cls-2" cx="1" cy="453.72" r="1"/><circle class="cls-2" cx="1" cy="457.54" r="1"/><circle class="cls-2" cx="1" cy="461.36" r="1"/><circle class="cls-2" cx="1" cy="465.18" r="1"/><circle class="cls-2" cx="1" cy="468.99" r="1"/><circle class="cls-2" cx="1" cy="472.81" r="1"/><circle class="cls-2" cx="1" cy="476.63" r="1"/><circle class="cls-2" cx="1" cy="480.45" r="1"/><circle class="cls-2" cx="1" cy="484.27" r="1"/><circle class="cls-2" cx="1" cy="488.09" r="1"/><circle class="cls-2" cx="1" cy="491.91" r="1"/><circle class="cls-2" cx="1" cy="495.73" r="1"/><circle class="cls-2" cx="1" cy="499.55" r="1"/><circle class="cls-2" cx="1" cy="503.37" r="1"/><circle class="cls-2" cx="1" cy="507.19" r="1"/><circle class="cls-2" cx="1" cy="511.01" r="1"/><circle class="cls-2" cx="1" cy="514.83" r="1"/><circle class="cls-2" cx="1" cy="518.65" r="1"/><circle class="cls-2" cx="1" cy="522.47" r="1"/><circle class="cls-2" cx="1" cy="526.29" r="1"/><circle class="cls-2" cx="1" cy="530.11" r="1"/><circle class="cls-2" cx="1" cy="533.93" r="1"/><circle class="cls-2" cx="1" cy="537.75" r="1"/><circle class="cls-2" cx="1" cy="541.57" r="1"/><circle class="cls-2" cx="1" cy="545.39" r="1"/><circle class="cls-2" cx="1" cy="549.21" r="1"/><circle class="cls-2" cx="1" cy="553.03" r="1"/><circle class="cls-2" cx="1" cy="556.85" r="1"/><circle class="cls-2" cx="1" cy="560.67" r="1"/><circle class="cls-2" cx="1" cy="564.49" r="1"/><circle class="cls-2" cx="1" cy="568.31" r="1"/><circle class="cls-2" cx="1" cy="572.12" r="1"/><circle class="cls-2" cx="1" cy="575.94" r="1"/><circle class="cls-2" cx="1" cy="579.76" r="1"/><circle class="cls-2" cx="1" cy="583.58" r="1"/><circle class="cls-2" cx="1" cy="587.4" r="1"/><circle class="cls-2" cx="1" cy="591.22" r="1"/><circle class="cls-2" cx="1" cy="595.04" r="1"/><circle class="cls-2" cx="1" cy="598.86" r="1"/><circle class="cls-2" cx="1" cy="602.68" r="1"/><circle class="cls-2" cx="1" cy="606.5" r="1"/><circle class="cls-2" cx="1" cy="610.32" r="1"/><circle class="cls-2" cx="1" cy="614.14" r="1"/><circle class="cls-2" cx="1" cy="617.96" r="1"/><circle class="cls-2" cx="1" cy="621.78" r="1"/><circle class="cls-2" cx="1" cy="625.6" r="1"/><circle class="cls-2" cx="1" cy="629.42" r="1"/><circle class="cls-2" cx="1" cy="633.24" r="1"/><circle class="cls-2" cx="1" cy="637.06" r="1"/><circle class="cls-2" cx="1" cy="640.88" r="1"/><circle class="cls-2" cx="1" cy="644.7" r="1"/><circle class="cls-2" cx="1" cy="648.52" r="1"/><circle class="cls-2" cx="1" cy="652.34" r="1"/><circle class="cls-2" cx="1" cy="656.16" r="1"/><circle class="cls-2" cx="1" cy="659.98" r="1"/><circle class="cls-2" cx="1" cy="663.8" r="1"/><circle class="cls-2" cx="1" cy="667.62" r="1"/><circle class="cls-2" cx="1" cy="671.44" r="1"/><circle class="cls-2" cx="1" cy="675.25" r="1"/><circle class="cls-2" cx="1" cy="679.07" r="1"/><circle class="cls-2" cx="1" cy="682.89" r="1"/><circle class="cls-2" cx="1" cy="686.71" r="1"/><circle class="cls-2" cx="1" cy="690.53" r="1"/><circle class="cls-2" cx="1" cy="694.35" r="1"/><circle class="cls-2" cx="1" cy="698.17" r="1"/><circle class="cls-2" cx="1" cy="701.99" r="1"/><circle class="cls-2" cx="1" cy="705.81" r="1"/><circle class="cls-2" cx="1" cy="709.63" r="1"/><circle class="cls-2" cx="1" cy="713.45" r="1"/><circle class="cls-2" cx="1" cy="717.27" r="1"/><circle class="cls-2" cx="1" cy="721.09" r="1"/><circle class="cls-2" cx="1" cy="724.91" r="1"/><circle class="cls-2" cx="1" cy="728.73" r="1"/><circle class="cls-2" cx="1" cy="732.55" r="1"/><circle class="cls-2" cx="1" cy="736.37" r="1"/><circle class="cls-2" cx="1" cy="740.19" r="1"/><circle class="cls-2" cx="1" cy="744.01" r="1"/><circle class="cls-2" cx="1" cy="747.83" r="1"/><circle class="cls-2" cx="1" cy="751.65" r="1"/><circle class="cls-2" cx="1" cy="755.47" r="1"/><circle class="cls-2" cx="1" cy="759.29" r="1"/><circle class="cls-2" cx="1" cy="763.11" r="1"/><circle class="cls-2" cx="1" cy="766.93" r="1"/><circle class="cls-2" cx="1" cy="770.75" r="1"/><circle class="cls-2" cx="1" cy="774.56" r="1"/><circle class="cls-2" cx="1" cy="778.38" r="1"/><circle class="cls-2" cx="1" cy="782.2" r="1"/><circle class="cls-2" cx="1" cy="786.02" r="1"/><circle class="cls-2" cx="1" cy="789.84" r="1"/><circle class="cls-2" cx="1" cy="793.66" r="1"/><circle class="cls-2" cx="1" cy="797.48" r="1"/><circle class="cls-2" cx="1" cy="801.3" r="1"/><circle class="cls-2" cx="1" cy="805.12" r="1"/><circle class="cls-2" cx="1" cy="808.94" r="1"/><circle class="cls-2" cx="1" cy="812.76" r="1"/><circle class="cls-2" cx="1" cy="816.58" r="1"/><circle class="cls-2" cx="1" cy="820.4" r="1"/><circle class="cls-2" cx="1" cy="824.22" r="1"/><circle class="cls-2" cx="1" cy="828.04" r="1"/><circle class="cls-2" cx="1" cy="831.86" r="1"/><circle class="cls-2" cx="1" cy="835.68" r="1"/><circle class="cls-2" cx="1" cy="839.5" r="1"/><circle class="cls-2" cx="1" cy="843.32" r="1"/><circle class="cls-2" cx="1" cy="847.14" r="1"/><circle class="cls-2" cx="1" cy="850.96" r="1"/><circle class="cls-2" cx="1" cy="854.78" r="1"/><circle class="cls-2" cx="1" cy="858.6" r="1"/><circle class="cls-2" cx="1" cy="862.42" r="1"/><circle class="cls-2" cx="1" cy="866.24" r="1"/><circle class="cls-2" cx="1" cy="870.06" r="1"/><circle class="cls-2" cx="1" cy="873.88" r="1"/><circle class="cls-2" cx="1" cy="877.69" r="1"/><circle class="cls-2" cx="1" cy="881.51" r="1"/><circle class="cls-2" cx="1" cy="885.33" r="1"/><circle class="cls-2" cx="1" cy="889.15" r="1"/><circle class="cls-2" cx="1" cy="892.97" r="1"/><circle class="cls-2" cx="1" cy="896.79" r="1"/><circle class="cls-2" cx="1" cy="900.61" r="1"/><circle class="cls-2" cx="1" cy="904.43" r="1"/><circle class="cls-2" cx="1" cy="908.25" r="1"/><circle class="cls-2" cx="1" cy="912.07" r="1"/><circle class="cls-2" cx="1" cy="915.89" r="1"/><circle class="cls-2" cx="1" cy="919.71" r="1"/><circle class="cls-2" cx="1" cy="923.53" r="1"/><circle class="cls-2" cx="1" cy="927.35" r="1"/><circle class="cls-2" cx="1" cy="931.17" r="1"/><circle class="cls-2" cx="1" cy="934.99" r="1"/><circle class="cls-2" cx="1" cy="938.81" r="1"/><circle class="cls-2" cx="1" cy="942.63" r="1"/><circle class="cls-2" cx="1" cy="946.45" r="1"/><circle class="cls-2" cx="1" cy="950.27" r="1"/><circle class="cls-2" cx="1" cy="954.09" r="1"/><circle class="cls-2" cx="1" cy="957.91" r="1"/><circle class="cls-2" cx="1" cy="961.73" r="1"/><circle class="cls-2" cx="1" cy="965.55" r="1"/><circle class="cls-2" cx="1" cy="969.37" r="1"/><circle class="cls-2" cx="1" cy="973.19" r="1"/><circle class="cls-2" cx="1" cy="977.01" r="1"/><circle class="cls-2" cx="1" cy="980.82" r="1"/><circle class="cls-2" cx="1" cy="984.64" r="1"/><circle class="cls-2" cx="1" cy="988.46" r="1"/><circle class="cls-2" cx="1" cy="992.28" r="1"/><circle class="cls-2" cx="1" cy="996.1" r="1"/><circle class="cls-2" cx="1" cy="999.92" r="1"/><circle class="cls-2" cx="1" cy="1003.74" r="1"/><circle class="cls-2" cx="1" cy="1007.56" r="1"/><circle class="cls-2" cx="1" cy="1011.38" r="1"/><circle class="cls-2" cx="1" cy="1015.2" r="1"/><circle class="cls-2" cx="1" cy="1019.02" r="1"/><circle class="cls-2" cx="1" cy="1022.84" r="1"/><circle class="cls-2" cx="1" cy="1026.66" r="1"/><circle class="cls-2" cx="1" cy="1030.48" r="1"/><circle class="cls-2" cx="1" cy="1034.3" r="1"/><circle class="cls-2" cx="1" cy="1038.12" r="1"/><circle class="cls-2" cx="1" cy="1041.94" r="1"/><circle class="cls-2" cx="1" cy="1045.76" r="1"/><circle class="cls-2" cx="1" cy="1049.58" r="1"/><circle class="cls-2" cx="1" cy="1053.4" r="1"/><circle class="cls-2" cx="1" cy="1057.22" r="1"/><circle class="cls-2" cx="1" cy="1061.04" r="1"/><circle class="cls-2" cx="1" cy="1064.86" r="1"/><circle class="cls-2" cx="1" cy="1068.68" r="1"/><circle class="cls-2" cx="1" cy="1072.5" r="1"/><circle class="cls-2" cx="1" cy="1076.32" r="1"/><circle class="cls-2" cx="1" cy="1080.14" r="1"/><circle class="cls-2" cx="1" cy="1083.95" r="1"/><circle class="cls-2" cx="1" cy="1087.77" r="1"/><circle class="cls-2" cx="1" cy="1091.59" r="1"/><circle class="cls-2" cx="1" cy="1095.41" r="1"/><circle class="cls-2" cx="1" cy="1099.23" r="1"/><circle class="cls-2" cx="1" cy="1103.05" r="1"/><circle class="cls-2" cx="1" cy="1106.87" r="1"/><circle class="cls-2" cx="1" cy="1110.69" r="1"/><circle class="cls-2" cx="1" cy="1114.51" r="1"/><circle class="cls-2" cx="1" cy="1118.33" r="1"/><circle class="cls-2" cx="1" cy="1122.15" r="1"/><circle class="cls-2" cx="1" cy="1125.97" r="1"/><circle class="cls-2" cx="1" cy="1129.79" r="1"/><circle class="cls-2" cx="1" cy="1133.61" r="1"/><circle class="cls-2" cx="1" cy="1137.43" r="1"/><circle class="cls-2" cx="1" cy="1141.25" r="1"/><circle class="cls-2" cx="1" cy="1145.07" r="1"/><circle class="cls-2" cx="1" cy="1148.89" r="1"/><circle class="cls-2" cx="1" cy="1152.71" r="1"/><circle class="cls-2" cx="1" cy="1156.53" r="1"/><circle class="cls-2" cx="1" cy="1160.35" r="1"/><circle class="cls-2" cx="1" cy="1164.17" r="1"/><circle class="cls-2" cx="1" cy="1167.99" r="1"/><circle class="cls-2" cx="1" cy="1171.81" r="1"/><circle class="cls-2" cx="1" cy="1175.63" r="1"/><circle class="cls-2" cx="1" cy="1179.45" r="1"/><circle class="cls-2" cx="1" cy="1183.27" r="1"/><circle class="cls-2" cx="1" cy="1187.08" r="1"/><circle class="cls-2" cx="1" cy="1190.9" r="1"/><circle class="cls-2" cx="1" cy="1194.72" r="1"/><circle class="cls-2" cx="1" cy="1198.54" r="1"/><circle class="cls-2" cx="1" cy="1202.36" r="1"/><circle class="cls-2" cx="1" cy="1206.18" r="1"/><circle class="cls-2" cx="1" cy="1210" r="1"/><circle class="cls-2" cx="1" cy="1213.82" r="1"/><circle class="cls-2" cx="1" cy="1217.64" r="1"/><circle class="cls-2" cx="1" cy="1221.46" r="1"/><circle class="cls-2" cx="1" cy="1225.28" r="1"/><circle class="cls-2" cx="1" cy="1229.1" r="1"/><circle class="cls-2" cx="1" cy="1232.92" r="1"/><circle class="cls-2" cx="1" cy="1236.74" r="1"/><circle class="cls-2" cx="1" cy="1240.56" r="1"/><circle class="cls-2" cx="1" cy="1244.38" r="1"/><circle class="cls-2" cx="1" cy="1248.2" r="1"/><circle class="cls-2" cx="1" cy="1252.02" r="1"/><circle class="cls-2" cx="1" cy="1255.84" r="1"/><circle class="cls-2" cx="1" cy="1259.66" r="1"/><circle class="cls-2" cx="1" cy="1263.48" r="1"/><circle class="cls-2" cx="1" cy="1267.3" r="1"/><circle class="cls-2" cx="1" cy="1271.12" r="1"/><circle class="cls-2" cx="1" cy="1274.94" r="1"/><circle class="cls-2" cx="1" cy="1278.76" r="1"/><circle class="cls-2" cx="1" cy="1282.58" r="1"/><circle class="cls-2" cx="1" cy="1286.4" r="1"/><circle class="cls-2" cx="1" cy="1290.21" r="1"/><circle class="cls-2" cx="1" cy="1294.03" r="1"/><circle class="cls-2" cx="1" cy="1297.85" r="1"/><circle class="cls-2" cx="1" cy="1301.67" r="1"/><circle class="cls-2" cx="1" cy="1305.49" r="1"/><circle class="cls-2" cx="1" cy="1309.31" r="1"/><circle class="cls-2" cx="1" cy="1313.13" r="1"/><circle class="cls-2" cx="1" cy="1316.95" r="1"/><circle class="cls-2" cx="1" cy="1320.77" r="1"/><circle class="cls-2" cx="1" cy="1324.59" r="1"/><circle class="cls-2" cx="1" cy="1328.41" r="1"/><circle class="cls-2" cx="1" cy="1332.23" r="1"/><circle class="cls-2" cx="1" cy="1336.05" r="1"/><circle class="cls-2" cx="1" cy="1339.87" r="1"/><circle class="cls-2" cx="1" cy="1343.69" r="1"/><circle class="cls-2" cx="1" cy="1347.51" r="1"/><circle class="cls-2" cx="1" cy="1351.33" r="1"/><circle class="cls-2" cx="1" cy="1355.15" r="1"/><circle class="cls-2" cx="1" cy="1358.97" r="1"/><circle class="cls-2" cx="1" cy="1362.79" r="1"/><circle class="cls-2" cx="1" cy="1366.61" r="1"/><circle class="cls-2" cx="1" cy="1370.43" r="1"/><circle class="cls-2" cx="1" cy="1374.25" r="1"/><circle class="cls-2" cx="1" cy="1378.07" r="1"/><circle class="cls-2" cx="1" cy="1381.89" r="1"/><circle class="cls-2" cx="1" cy="1385.71" r="1"/><circle class="cls-2" cx="1" cy="1389.53" r="1"/><circle class="cls-2" cx="1" cy="1393.34" r="1"/><circle class="cls-2" cx="1" cy="1397.16" r="1"/><circle class="cls-2" cx="1" cy="1400.98" r="1"/><circle class="cls-2" cx="1" cy="1404.8" r="1"/><circle class="cls-2" cx="1" cy="1408.62" r="1"/><circle class="cls-2" cx="1" cy="1412.44" r="1"/><circle class="cls-2" cx="1" cy="1416.26" r="1"/><circle class="cls-2" cx="1" cy="1420.08" r="1"/><circle class="cls-2" cx="1" cy="1423.9" r="1"/><circle class="cls-2" cx="1" cy="1427.72" r="1"/><circle class="cls-2" cx="1" cy="1431.54" r="1"/><circle class="cls-2" cx="1" cy="1435.36" r="1"/><circle class="cls-2" cx="1" cy="1439.18" r="1"/><circle class="cls-2" cx="1" cy="1443" r="1"/><circle class="cls-2" cx="4" cy="1" r="1"/><circle class="cls-2" cx="4" cy="4.82" r="1"/><circle class="cls-2" cx="4" cy="8.64" r="1"/><circle class="cls-2" cx="4" cy="12.46" r="1"/><circle class="cls-2" cx="4" cy="16.28" r="1"/><circle class="cls-2" cx="4" cy="20.1" r="1"/><circle class="cls-2" cx="4" cy="23.92" r="1"/><circle class="cls-2" cx="4" cy="27.74" r="1"/><circle class="cls-2" cx="4" cy="31.56" r="1"/><circle class="cls-2" cx="4" cy="35.38" r="1"/><circle class="cls-2" cx="4" cy="39.2" r="1"/><circle class="cls-2" cx="4" cy="43.02" r="1"/><circle class="cls-2" cx="4" cy="46.84" r="1"/><circle class="cls-2" cx="4" cy="50.66" r="1"/><circle class="cls-2" cx="4" cy="54.47" r="1"/><circle class="cls-2" cx="4" cy="58.29" r="1"/><circle class="cls-2" cx="4" cy="62.11" r="1"/><circle class="cls-2" cx="4" cy="65.93" r="1"/><circle class="cls-2" cx="4" cy="69.75" r="1"/><circle class="cls-2" cx="4" cy="73.57" r="1"/><circle class="cls-2" cx="4" cy="77.39" r="1"/><circle class="cls-2" cx="4" cy="81.21" r="1"/><circle class="cls-2" cx="4" cy="85.03" r="1"/><circle class="cls-2" cx="4" cy="88.85" r="1"/><circle class="cls-2" cx="4" cy="92.67" r="1"/><circle class="cls-2" cx="4" cy="96.49" r="1"/><circle class="cls-2" cx="4" cy="100.31" r="1"/><circle class="cls-2" cx="4" cy="104.13" r="1"/><circle class="cls-2" cx="4" cy="107.95" r="1"/><circle class="cls-2" cx="4" cy="111.77" r="1"/><circle class="cls-2" cx="4" cy="115.59" r="1"/><circle class="cls-2" cx="4" cy="119.41" r="1"/><circle class="cls-2" cx="4" cy="123.23" r="1"/><circle class="cls-2" cx="4" cy="127.05" r="1"/><circle class="cls-2" cx="4" cy="130.87" r="1"/><circle class="cls-2" cx="4" cy="134.69" r="1"/><circle class="cls-2" cx="4" cy="138.51" r="1"/><circle class="cls-2" cx="4" cy="142.33" r="1"/><circle class="cls-2" cx="4" cy="146.15" r="1"/><circle class="cls-2" cx="4" cy="149.97" r="1"/><circle class="cls-2" cx="4" cy="153.79" r="1"/><circle class="cls-2" cx="4" cy="157.6" r="1"/><circle class="cls-2" cx="4" cy="161.42" r="1"/><circle class="cls-2" cx="4" cy="165.24" r="1"/><circle class="cls-2" cx="4" cy="169.06" r="1"/><circle class="cls-2" cx="4" cy="172.88" r="1"/><circle class="cls-2" cx="4" cy="176.7" r="1"/><circle class="cls-2" cx="4" cy="180.52" r="1"/><circle class="cls-2" cx="4" cy="184.34" r="1"/><circle class="cls-2" cx="4" cy="188.16" r="1"/><circle class="cls-2" cx="4" cy="191.98" r="1"/><circle class="cls-2" cx="4" cy="195.8" r="1"/><circle class="cls-2" cx="4" cy="199.62" r="1"/><circle class="cls-2" cx="4" cy="203.44" r="1"/><circle class="cls-2" cx="4" cy="207.26" r="1"/><circle class="cls-2" cx="4" cy="211.08" r="1"/><circle class="cls-2" cx="4" cy="214.9" r="1"/><circle class="cls-2" cx="4" cy="218.72" r="1"/><circle class="cls-2" cx="4" cy="222.54" r="1"/><circle class="cls-2" cx="4" cy="226.36" r="1"/><circle class="cls-2" cx="4" cy="230.18" r="1"/><circle class="cls-2" cx="4" cy="234" r="1"/><circle class="cls-2" cx="4" cy="237.82" r="1"/><circle class="cls-2" cx="4" cy="241.64" r="1"/><circle class="cls-2" cx="4" cy="245.46" r="1"/><circle class="cls-2" cx="4" cy="249.28" r="1"/><circle class="cls-2" cx="4" cy="253.1" r="1"/><circle class="cls-2" cx="4" cy="256.92" r="1"/><circle class="cls-2" cx="4" cy="260.73" r="1"/><circle class="cls-2" cx="4" cy="264.55" r="1"/><circle class="cls-2" cx="4" cy="268.37" r="1"/><circle class="cls-2" cx="4" cy="272.19" r="1"/><circle class="cls-2" cx="4" cy="276.01" r="1"/><circle class="cls-2" cx="4" cy="279.83" r="1"/><circle class="cls-2" cx="4" cy="283.65" r="1"/><circle class="cls-2" cx="4" cy="287.47" r="1"/><circle class="cls-2" cx="4" cy="291.29" r="1"/><circle class="cls-2" cx="4" cy="295.11" r="1"/><circle class="cls-2" cx="4" cy="298.93" r="1"/><circle class="cls-2" cx="4" cy="302.75" r="1"/><circle class="cls-2" cx="4" cy="306.57" r="1"/><circle class="cls-2" cx="4" cy="310.39" r="1"/><circle class="cls-2" cx="4" cy="314.21" r="1"/><circle class="cls-2" cx="4" cy="318.03" r="1"/><circle class="cls-2" cx="4" cy="321.85" r="1"/><circle class="cls-2" cx="4" cy="325.67" r="1"/><circle class="cls-2" cx="4" cy="329.49" r="1"/><circle class="cls-2" cx="4" cy="333.31" r="1"/><circle class="cls-2" cx="4" cy="337.13" r="1"/><circle class="cls-2" cx="4" cy="340.95" r="1"/><circle class="cls-2" cx="4" cy="344.77" r="1"/><circle class="cls-2" cx="4" cy="348.59" r="1"/><circle class="cls-2" cx="4" cy="352.41" r="1"/><circle class="cls-2" cx="4" cy="356.23" r="1"/><circle class="cls-2" cx="4" cy="360.05" r="1"/><circle class="cls-2" cx="4" cy="363.86" r="1"/><circle class="cls-2" cx="4" cy="367.68" r="1"/><circle class="cls-2" cx="4" cy="371.5" r="1"/><circle class="cls-2" cx="4" cy="375.32" r="1"/><circle class="cls-2" cx="4" cy="379.14" r="1"/><circle class="cls-2" cx="4" cy="382.96" r="1"/><circle class="cls-2" cx="4" cy="386.78" r="1"/><circle class="cls-2" cx="4" cy="390.6" r="1"/><circle class="cls-2" cx="4" cy="394.42" r="1"/><circle class="cls-2" cx="4" cy="398.24" r="1"/><circle class="cls-2" cx="4" cy="402.06" r="1"/><circle class="cls-2" cx="4" cy="405.88" r="1"/><circle class="cls-2" cx="4" cy="409.7" r="1"/><circle class="cls-2" cx="4" cy="413.52" r="1"/><circle class="cls-2" cx="4" cy="417.34" r="1"/><circle class="cls-2" cx="4" cy="421.16" r="1"/><circle class="cls-2" cx="4" cy="424.98" r="1"/><circle class="cls-2" cx="4" cy="428.8" r="1"/><circle class="cls-2" cx="4" cy="432.62" r="1"/><circle class="cls-2" cx="4" cy="436.44" r="1"/><circle class="cls-2" cx="4" cy="440.26" r="1"/><circle class="cls-2" cx="4" cy="444.08" r="1"/><circle class="cls-2" cx="4" cy="447.9" r="1"/><circle class="cls-2" cx="4" cy="451.72" r="1"/><circle class="cls-2" cx="4" cy="455.54" r="1"/><circle class="cls-2" cx="4" cy="459.36" r="1"/><circle class="cls-2" cx="4" cy="463.18" r="1"/><circle class="cls-2" cx="4" cy="466.99" r="1"/><circle class="cls-2" cx="4" cy="470.81" r="1"/><circle class="cls-2" cx="4" cy="474.63" r="1"/><circle class="cls-2" cx="4" cy="478.45" r="1"/><circle class="cls-2" cx="4" cy="482.27" r="1"/><circle class="cls-2" cx="4" cy="486.09" r="1"/><circle class="cls-2" cx="4" cy="489.91" r="1"/><circle class="cls-2" cx="4" cy="493.73" r="1"/><circle class="cls-2" cx="4" cy="497.55" r="1"/><circle class="cls-2" cx="4" cy="501.37" r="1"/><circle class="cls-2" cx="4" cy="505.19" r="1"/><circle class="cls-2" cx="4" cy="509.01" r="1"/><circle class="cls-2" cx="4" cy="512.83" r="1"/><circle class="cls-2" cx="4" cy="516.65" r="1"/><circle class="cls-2" cx="4" cy="520.47" r="1"/><circle class="cls-2" cx="4" cy="524.29" r="1"/><circle class="cls-2" cx="4" cy="528.11" r="1"/><circle class="cls-2" cx="4" cy="531.93" r="1"/><circle class="cls-2" cx="4" cy="535.75" r="1"/><circle class="cls-2" cx="4" cy="539.57" r="1"/><circle class="cls-2" cx="4" cy="543.39" r="1"/><circle class="cls-2" cx="4" cy="547.21" r="1"/><circle class="cls-2" cx="4" cy="551.03" r="1"/><circle class="cls-2" cx="4" cy="554.85" r="1"/><circle class="cls-2" cx="4" cy="558.67" r="1"/><circle class="cls-2" cx="4" cy="562.49" r="1"/><circle class="cls-2" cx="4" cy="566.31" r="1"/><circle class="cls-2" cx="4" cy="570.12" r="1"/><circle class="cls-2" cx="4" cy="573.94" r="1"/><circle class="cls-2" cx="4" cy="577.76" r="1"/><circle class="cls-2" cx="4" cy="581.58" r="1"/><circle class="cls-2" cx="4" cy="585.4" r="1"/><circle class="cls-2" cx="4" cy="589.22" r="1"/><circle class="cls-2" cx="4" cy="593.04" r="1"/><circle class="cls-2" cx="4" cy="596.86" r="1"/><circle class="cls-2" cx="4" cy="600.68" r="1"/><circle class="cls-2" cx="4" cy="604.5" r="1"/><circle class="cls-2" cx="4" cy="608.32" r="1"/><circle class="cls-2" cx="4" cy="612.14" r="1"/><circle class="cls-2" cx="4" cy="615.96" r="1"/><circle class="cls-2" cx="4" cy="619.78" r="1"/><circle class="cls-2" cx="4" cy="623.6" r="1"/><circle class="cls-2" cx="4" cy="627.42" r="1"/><circle class="cls-2" cx="4" cy="631.24" r="1"/><circle class="cls-2" cx="4" cy="635.06" r="1"/><circle class="cls-2" cx="4" cy="638.88" r="1"/><circle class="cls-2" cx="4" cy="642.7" r="1"/><circle class="cls-2" cx="4" cy="646.52" r="1"/><circle class="cls-2" cx="4" cy="650.34" r="1"/><circle class="cls-2" cx="4" cy="654.16" r="1"/><circle class="cls-2" cx="4" cy="657.98" r="1"/><circle class="cls-2" cx="4" cy="661.8" r="1"/><circle class="cls-2" cx="4" cy="665.62" r="1"/><circle class="cls-2" cx="4" cy="669.44" r="1"/><circle class="cls-2" cx="4" cy="673.25" r="1"/><circle class="cls-2" cx="4" cy="677.07" r="1"/><circle class="cls-2" cx="4" cy="680.89" r="1"/><circle class="cls-2" cx="4" cy="684.71" r="1"/><circle class="cls-2" cx="4" cy="688.53" r="1"/><circle class="cls-2" cx="4" cy="692.35" r="1"/><circle class="cls-2" cx="4" cy="696.17" r="1"/><circle class="cls-2" cx="4" cy="699.99" r="1"/><circle class="cls-2" cx="4" cy="703.81" r="1"/><circle class="cls-2" cx="4" cy="707.63" r="1"/><circle class="cls-2" cx="4" cy="711.45" r="1"/><circle class="cls-2" cx="4" cy="715.27" r="1"/><circle class="cls-2" cx="4" cy="719.09" r="1"/><circle class="cls-2" cx="4" cy="722.91" r="1"/><circle class="cls-2" cx="4" cy="726.73" r="1"/><circle class="cls-2" cx="4" cy="730.55" r="1"/><circle class="cls-2" cx="4" cy="734.37" r="1"/><circle class="cls-2" cx="4" cy="738.19" r="1"/><circle class="cls-2" cx="4" cy="742.01" r="1"/><circle class="cls-2" cx="4" cy="745.83" r="1"/><circle class="cls-2" cx="4" cy="749.65" r="1"/><circle class="cls-2" cx="4" cy="753.47" r="1"/><circle class="cls-2" cx="4" cy="757.29" r="1"/><circle class="cls-2" cx="4" cy="761.11" r="1"/><circle class="cls-2" cx="4" cy="764.93" r="1"/><circle class="cls-2" cx="4" cy="768.75" r="1"/><circle class="cls-2" cx="4" cy="772.56" r="1"/><circle class="cls-2" cx="4" cy="776.38" r="1"/><circle class="cls-2" cx="4" cy="780.2" r="1"/><circle class="cls-2" cx="4" cy="784.02" r="1"/><circle class="cls-2" cx="4" cy="787.84" r="1"/><circle class="cls-2" cx="4" cy="791.66" r="1"/><circle class="cls-2" cx="4" cy="795.48" r="1"/><circle class="cls-2" cx="4" cy="799.3" r="1"/><circle class="cls-2" cx="4" cy="803.12" r="1"/><circle class="cls-2" cx="4" cy="806.94" r="1"/><circle class="cls-2" cx="4" cy="810.76" r="1"/><circle class="cls-2" cx="4" cy="814.58" r="1"/><circle class="cls-2" cx="4" cy="818.4" r="1"/><circle class="cls-2" cx="4" cy="822.22" r="1"/><circle class="cls-2" cx="4" cy="826.04" r="1"/><circle class="cls-2" cx="4" cy="829.86" r="1"/><circle class="cls-2" cx="4" cy="833.68" r="1"/><circle class="cls-2" cx="4" cy="837.5" r="1"/><circle class="cls-2" cx="4" cy="841.32" r="1"/><circle class="cls-2" cx="4" cy="845.14" r="1"/><circle class="cls-2" cx="4" cy="848.96" r="1"/><circle class="cls-2" cx="4" cy="852.78" r="1"/><circle class="cls-2" cx="4" cy="856.6" r="1"/><circle class="cls-2" cx="4" cy="860.42" r="1"/><circle class="cls-2" cx="4" cy="864.24" r="1"/><circle class="cls-2" cx="4" cy="868.06" r="1"/><circle class="cls-2" cx="4" cy="871.88" r="1"/><circle class="cls-2" cx="4" cy="875.69" r="1"/><circle class="cls-2" cx="4" cy="879.51" r="1"/><circle class="cls-2" cx="4" cy="883.33" r="1"/><circle class="cls-2" cx="4" cy="887.15" r="1"/><circle class="cls-2" cx="4" cy="890.97" r="1"/><circle class="cls-2" cx="4" cy="894.79" r="1"/><circle class="cls-2" cx="4" cy="898.61" r="1"/><circle class="cls-2" cx="4" cy="902.43" r="1"/><circle class="cls-2" cx="4" cy="906.25" r="1"/><circle class="cls-2" cx="4" cy="910.07" r="1"/><circle class="cls-2" cx="4" cy="913.89" r="1"/><circle class="cls-2" cx="4" cy="917.71" r="1"/><circle class="cls-2" cx="4" cy="921.53" r="1"/><circle class="cls-2" cx="4" cy="925.35" r="1"/><circle class="cls-2" cx="4" cy="929.17" r="1"/><circle class="cls-2" cx="4" cy="932.99" r="1"/><circle class="cls-2" cx="4" cy="936.81" r="1"/><circle class="cls-2" cx="4" cy="940.63" r="1"/><circle class="cls-2" cx="4" cy="944.45" r="1"/><circle class="cls-2" cx="4" cy="948.27" r="1"/><circle class="cls-2" cx="4" cy="952.09" r="1"/><circle class="cls-2" cx="4" cy="955.91" r="1"/><circle class="cls-2" cx="4" cy="959.73" r="1"/><circle class="cls-2" cx="4" cy="963.55" r="1"/><circle class="cls-2" cx="4" cy="967.37" r="1"/><circle class="cls-2" cx="4" cy="971.19" r="1"/><circle class="cls-2" cx="4" cy="975.01" r="1"/><circle class="cls-2" cx="4" cy="978.82" r="1"/><circle class="cls-2" cx="4" cy="982.64" r="1"/><circle class="cls-2" cx="4" cy="986.46" r="1"/><circle class="cls-2" cx="4" cy="990.28" r="1"/><circle class="cls-2" cx="4" cy="994.1" r="1"/><circle class="cls-2" cx="4" cy="997.92" r="1"/><circle class="cls-2" cx="4" cy="1001.74" r="1"/><circle class="cls-2" cx="4" cy="1005.56" r="1"/><circle class="cls-2" cx="4" cy="1009.38" r="1"/><circle class="cls-2" cx="4" cy="1013.2" r="1"/><circle class="cls-2" cx="4" cy="1017.02" r="1"/><circle class="cls-2" cx="4" cy="1020.84" r="1"/><circle class="cls-2" cx="4" cy="1024.66" r="1"/><circle class="cls-2" cx="4" cy="1028.48" r="1"/><circle class="cls-2" cx="4" cy="1032.3" r="1"/><circle class="cls-2" cx="4" cy="1036.12" r="1"/><circle class="cls-2" cx="4" cy="1039.94" r="1"/><circle class="cls-2" cx="4" cy="1043.76" r="1"/><circle class="cls-2" cx="4" cy="1047.58" r="1"/><circle class="cls-2" cx="4" cy="1051.4" r="1"/><circle class="cls-2" cx="4" cy="1055.22" r="1"/><circle class="cls-2" cx="4" cy="1059.04" r="1"/><circle class="cls-2" cx="4" cy="1062.86" r="1"/><circle class="cls-2" cx="4" cy="1066.68" r="1"/><circle class="cls-2" cx="4" cy="1070.5" r="1"/><circle class="cls-2" cx="4" cy="1074.32" r="1"/><circle class="cls-2" cx="4" cy="1078.14" r="1"/><circle class="cls-2" cx="4" cy="1081.95" r="1"/><circle class="cls-2" cx="4" cy="1085.77" r="1"/><circle class="cls-2" cx="4" cy="1089.59" r="1"/><circle class="cls-2" cx="4" cy="1093.41" r="1"/><circle class="cls-2" cx="4" cy="1097.23" r="1"/><circle class="cls-2" cx="4" cy="1101.05" r="1"/><circle class="cls-2" cx="4" cy="1104.87" r="1"/><circle class="cls-2" cx="4" cy="1108.69" r="1"/><circle class="cls-2" cx="4" cy="1112.51" r="1"/><circle class="cls-2" cx="4" cy="1116.33" r="1"/><circle class="cls-2" cx="4" cy="1120.15" r="1"/><circle class="cls-2" cx="4" cy="1123.97" r="1"/><circle class="cls-2" cx="4" cy="1127.79" r="1"/><circle class="cls-2" cx="4" cy="1131.61" r="1"/><circle class="cls-2" cx="4" cy="1135.43" r="1"/><circle class="cls-2" cx="4" cy="1139.25" r="1"/><circle class="cls-2" cx="4" cy="1143.07" r="1"/><circle class="cls-2" cx="4" cy="1146.89" r="1"/><circle class="cls-2" cx="4" cy="1150.71" r="1"/><circle class="cls-2" cx="4" cy="1154.53" r="1"/><circle class="cls-2" cx="4" cy="1158.35" r="1"/><circle class="cls-2" cx="4" cy="1162.17" r="1"/><circle class="cls-2" cx="4" cy="1165.99" r="1"/><circle class="cls-2" cx="4" cy="1169.81" r="1"/><circle class="cls-2" cx="4" cy="1173.63" r="1"/><circle class="cls-2" cx="4" cy="1177.45" r="1"/><circle class="cls-2" cx="4" cy="1181.27" r="1"/><circle class="cls-2" cx="4" cy="1185.08" r="1"/><circle class="cls-2" cx="4" cy="1188.9" r="1"/><circle class="cls-2" cx="4" cy="1192.72" r="1"/><circle class="cls-2" cx="4" cy="1196.54" r="1"/><circle class="cls-2" cx="4" cy="1200.36" r="1"/><circle class="cls-2" cx="4" cy="1204.18" r="1"/><circle class="cls-2" cx="4" cy="1208" r="1"/><circle class="cls-2" cx="4" cy="1211.82" r="1"/><circle class="cls-2" cx="4" cy="1215.64" r="1"/><circle class="cls-2" cx="4" cy="1219.46" r="1"/><circle class="cls-2" cx="4" cy="1223.28" r="1"/><circle class="cls-2" cx="4" cy="1227.1" r="1"/><circle class="cls-2" cx="4" cy="1230.92" r="1"/><circle class="cls-2" cx="4" cy="1234.74" r="1"/><circle class="cls-2" cx="4" cy="1238.56" r="1"/><circle class="cls-2" cx="4" cy="1242.38" r="1"/><circle class="cls-2" cx="4" cy="1246.2" r="1"/><circle class="cls-2" cx="4" cy="1250.02" r="1"/><circle class="cls-2" cx="4" cy="1253.84" r="1"/><circle class="cls-2" cx="4" cy="1257.66" r="1"/><circle class="cls-2" cx="4" cy="1261.48" r="1"/><circle class="cls-2" cx="4" cy="1265.3" r="1"/><circle class="cls-2" cx="4" cy="1269.12" r="1"/><circle class="cls-2" cx="4" cy="1272.94" r="1"/><circle class="cls-2" cx="4" cy="1276.76" r="1"/><circle class="cls-2" cx="4" cy="1280.58" r="1"/><circle class="cls-2" cx="4" cy="1284.4" r="1"/><circle class="cls-2" cx="4" cy="1288.21" r="1"/><circle class="cls-2" cx="4" cy="1292.03" r="1"/><circle class="cls-2" cx="4" cy="1295.85" r="1"/><circle class="cls-2" cx="4" cy="1299.67" r="1"/><circle class="cls-2" cx="4" cy="1303.49" r="1"/><circle class="cls-2" cx="4" cy="1307.31" r="1"/><circle class="cls-2" cx="4" cy="1311.13" r="1"/><circle class="cls-2" cx="4" cy="1314.95" r="1"/><circle class="cls-2" cx="4" cy="1318.77" r="1"/><circle class="cls-2" cx="4" cy="1322.59" r="1"/><circle class="cls-2" cx="4" cy="1326.41" r="1"/><circle class="cls-2" cx="4" cy="1330.23" r="1"/><circle class="cls-2" cx="4" cy="1334.05" r="1"/><circle class="cls-2" cx="4" cy="1337.87" r="1"/><circle class="cls-2" cx="4" cy="1341.69" r="1"/><circle class="cls-2" cx="4" cy="1345.51" r="1"/><circle class="cls-2" cx="4" cy="1349.33" r="1"/><circle class="cls-2" cx="4" cy="1353.15" r="1"/><circle class="cls-2" cx="4" cy="1356.97" r="1"/><circle class="cls-2" cx="4" cy="1360.79" r="1"/><circle class="cls-2" cx="4" cy="1364.61" r="1"/><circle class="cls-2" cx="4" cy="1368.43" r="1"/><circle class="cls-2" cx="4" cy="1372.25" r="1"/><circle class="cls-2" cx="4" cy="1376.07" r="1"/><circle class="cls-2" cx="4" cy="1379.89" r="1"/><circle class="cls-2" cx="4" cy="1383.71" r="1"/><circle class="cls-2" cx="4" cy="1387.53" r="1"/><circle class="cls-2" cx="4" cy="1391.34" r="1"/><circle class="cls-2" cx="4" cy="1395.16" r="1"/><circle class="cls-2" cx="4" cy="1398.98" r="1"/><circle class="cls-2" cx="4" cy="1402.8" r="1"/><circle class="cls-2" cx="4" cy="1406.62" r="1"/><circle class="cls-2" cx="4" cy="1410.44" r="1"/><circle class="cls-2" cx="4" cy="1414.26" r="1"/><circle class="cls-2" cx="4" cy="1418.08" r="1"/><circle class="cls-2" cx="4" cy="1421.9" r="1"/><circle class="cls-2" cx="4" cy="1425.72" r="1"/><circle class="cls-2" cx="4" cy="1429.54" r="1"/><circle class="cls-2" cx="4" cy="1433.36" r="1"/><circle class="cls-2" cx="4" cy="1437.18" r="1"/><circle class="cls-2" cx="4" cy="1441" r="1"/></svg>