<svg id="Layer_1" data-name="Layer 1" xmlns="http://www.w3.org/2000/svg" viewBox="0 0 23 1454"><defs><style>.cls-1{fill:#193279;}</style></defs><title>dots-01</title><circle class="cls-1" cx="19" cy="14" r="1"/><circle class="cls-1" cx="19" cy="37.61" r="1.05"/><circle class="cls-1" cx="19" cy="61.21" r="1.1"/><circle class="cls-1" cx="19" cy="84.82" r="1.15"/><circle class="cls-1" cx="19" cy="108.43" r="1.2"/><circle class="cls-1" cx="19" cy="132.03" r="1.25"/><circle class="cls-1" cx="19" cy="155.64" r="1.3"/><circle class="cls-1" cx="19" cy="179.25" r="1.34"/><circle class="cls-1" cx="19" cy="202.85" r="1.39"/><circle class="cls-1" cx="19" cy="226.46" r="1.44"/><circle class="cls-1" cx="19" cy="250.07" r="1.49"/><circle class="cls-1" cx="19" cy="273.67" r="1.54"/><circle class="cls-1" cx="19" cy="297.28" r="1.59"/><circle class="cls-1" cx="19" cy="320.89" r="1.64"/><circle class="cls-1" cx="19" cy="344.49" r="1.69"/><circle class="cls-1" cx="19" cy="368.1" r="1.74"/><circle class="cls-1" cx="19" cy="391.7" r="1.79"/><circle class="cls-1" cx="19" cy="415.31" r="1.84"/><circle class="cls-1" cx="19" cy="438.92" r="1.89"/><circle class="cls-1" cx="19" cy="462.52" r="1.93"/><circle class="cls-1" cx="19" cy="486.13" r="1.98"/><circle class="cls-1" cx="19" cy="509.74" r="2.03"/><circle class="cls-1" cx="19" cy="533.34" r="2.08"/><circle class="cls-1" cx="19" cy="556.95" r="2.13"/><circle class="cls-1" cx="19" cy="580.56" r="2.18"/><circle class="cls-1" cx="19" cy="604.16" r="2.23"/><circle class="cls-1" cx="19" cy="627.77" r="2.28"/><circle class="cls-1" cx="19" cy="651.38" r="2.33"/><circle class="cls-1" cx="19" cy="674.98" r="2.38"/><circle class="cls-1" cx="19" cy="698.59" r="2.43"/><circle class="cls-1" cx="19" cy="722.2" r="2.48"/><circle class="cls-1" cx="19" cy="745.8" r="2.52"/><circle class="cls-1" cx="19" cy="769.41" r="2.57"/><circle class="cls-1" cx="19" cy="793.02" r="2.62"/><circle class="cls-1" cx="19" cy="816.62" r="2.67"/><circle class="cls-1" cx="19" cy="840.23" r="2.72"/><circle class="cls-1" cx="19" cy="863.84" r="2.77"/><circle class="cls-1" cx="19" cy="887.44" r="2.82"/><circle class="cls-1" cx="19" cy="911.05" r="2.87"/><circle class="cls-1" cx="19" cy="934.66" r="2.92"/><circle class="cls-1" cx="19" cy="958.26" r="2.97"/><circle class="cls-1" cx="19" cy="981.87" r="3.02"/><circle class="cls-1" cx="19" cy="1005.48" r="3.07"/><circle class="cls-1" cx="19" cy="1029.08" r="3.11"/><circle class="cls-1" cx="19" cy="1052.69" r="3.16"/><circle class="cls-1" cx="19" cy="1076.3" r="3.21"/><circle class="cls-1" cx="19" cy="1099.9" r="3.26"/><circle class="cls-1" cx="19" cy="1123.51" r="3.31"/><circle class="cls-1" cx="19" cy="1147.11" r="3.36"/><circle class="cls-1" cx="19" cy="1170.72" r="3.41"/><circle class="cls-1" cx="19" cy="1194.33" r="3.46"/><circle class="cls-1" cx="19" cy="1217.93" r="3.51"/><circle class="cls-1" cx="19" cy="1241.54" r="3.56"/><circle class="cls-1" cx="19" cy="1265.15" r="3.61"/><circle class="cls-1" cx="19" cy="1288.75" r="3.66"/><circle class="cls-1" cx="19" cy="1312.36" r="3.7"/><circle class="cls-1" cx="19" cy="1335.97" r="3.75"/><circle class="cls-1" cx="19" cy="1359.57" r="3.8"/><circle class="cls-1" cx="19" cy="1383.18" r="3.85"/><circle class="cls-1" cx="19" cy="1406.79" r="3.9"/><circle class="cls-1" cx="19" cy="1430.39" r="3.95"/><circle class="cls-1" cx="19" cy="1454" r="4"/><circle class="cls-1" cx="4" cy="1" r="1"/><circle class="cls-1" cx="4" cy="24.61" r="1.05"/><circle class="cls-1" cx="4" cy="48.21" r="1.1"/><circle class="cls-1" cx="4" cy="71.82" r="1.15"/><circle class="cls-1" cx="4" cy="95.43" r="1.2"/><circle class="cls-1" cx="4" cy="119.03" r="1.25"/><circle class="cls-1" cx="4" cy="142.64" r="1.3"/><circle class="cls-1" cx="4" cy="166.25" r="1.34"/><circle class="cls-1" cx="4" cy="189.85" r="1.39"/><circle class="cls-1" cx="4" cy="213.46" r="1.44"/><circle class="cls-1" cx="4" cy="237.07" r="1.49"/><circle class="cls-1" cx="4" cy="260.67" r="1.54"/><circle class="cls-1" cx="4" cy="284.28" r="1.59"/><circle class="cls-1" cx="4" cy="307.89" r="1.64"/><circle class="cls-1" cx="4" cy="331.49" r="1.69"/><circle class="cls-1" cx="4" cy="355.1" r="1.74"/><circle class="cls-1" cx="4" cy="378.7" r="1.79"/><circle class="cls-1" cx="4" cy="402.31" r="1.84"/><circle class="cls-1" cx="4" cy="425.92" r="1.89"/><circle class="cls-1" cx="4" cy="449.52" r="1.93"/><circle class="cls-1" cx="4" cy="473.13" r="1.98"/><circle class="cls-1" cx="4" cy="496.74" r="2.03"/><circle class="cls-1" cx="4" cy="520.34" r="2.08"/><circle class="cls-1" cx="4" cy="543.95" r="2.13"/><circle class="cls-1" cx="4" cy="567.56" r="2.18"/><circle class="cls-1" cx="4" cy="591.16" r="2.23"/><circle class="cls-1" cx="4" cy="614.77" r="2.28"/><circle class="cls-1" cx="4" cy="638.38" r="2.33"/><circle class="cls-1" cx="4" cy="661.98" r="2.38"/><circle class="cls-1" cx="4" cy="685.59" r="2.43"/><circle class="cls-1" cx="4" cy="709.2" r="2.48"/><circle class="cls-1" cx="4" cy="732.8" r="2.52"/><circle class="cls-1" cx="4" cy="756.41" r="2.57"/><circle class="cls-1" cx="4" cy="780.02" r="2.62"/><circle class="cls-1" cx="4" cy="803.62" r="2.67"/><circle class="cls-1" cx="4" cy="827.23" r="2.72"/><circle class="cls-1" cx="4" cy="850.84" r="2.77"/><circle class="cls-1" cx="4" cy="874.44" r="2.82"/><circle class="cls-1" cx="4" cy="898.05" r="2.87"/><circle class="cls-1" cx="4" cy="921.66" r="2.92"/><circle class="cls-1" cx="4" cy="945.26" r="2.97"/><circle class="cls-1" cx="4" cy="968.87" r="3.02"/><circle class="cls-1" cx="4" cy="992.48" r="3.07"/><circle class="cls-1" cx="4" cy="1016.08" r="3.11"/><circle class="cls-1" cx="4" cy="1039.69" r="3.16"/><circle class="cls-1" cx="4" cy="1063.3" r="3.21"/><circle class="cls-1" cx="4" cy="1086.9" r="3.26"/><circle class="cls-1" cx="4" cy="1110.51" r="3.31"/><circle class="cls-1" cx="4" cy="1134.11" r="3.36"/><circle class="cls-1" cx="4" cy="1157.72" r="3.41"/><circle class="cls-1" cx="4" cy="1181.33" r="3.46"/><circle class="cls-1" cx="4" cy="1204.93" r="3.51"/><circle class="cls-1" cx="4" cy="1228.54" r="3.56"/><circle class="cls-1" cx="4" cy="1252.15" r="3.61"/><circle class="cls-1" cx="4" cy="1275.75" r="3.66"/><circle class="cls-1" cx="4" cy="1299.36" r="3.7"/><circle class="cls-1" cx="4" cy="1322.97" r="3.75"/><circle class="cls-1" cx="4" cy="1346.57" r="3.8"/><circle class="cls-1" cx="4" cy="1370.18" r="3.85"/><circle class="cls-1" cx="4" cy="1393.79" r="3.9"/><circle class="cls-1" cx="4" cy="1417.39" r="3.95"/><circle class="cls-1" cx="4" cy="1441" r="4"/></svg>