<?xml version="1.0" encoding="utf-8"?>
<!-- Generator: Adobe Illustrator 24.0.2, SVG Export Plug-In . SVG Version: 6.00 Build 0)  -->
<svg version="1.1" id="Layer_1" xmlns="http://www.w3.org/2000/svg" xmlns:xlink="http://www.w3.org/1999/xlink" x="0px" y="0px"
	 viewBox="0 0 600 600" style="enable-background:new 0 0 600 600;" xml:space="preserve">
<style type="text/css">
	.st0{fill:#193279;}
</style>
<g>
	<path class="st0" d="M300,331.1c-67.8,0-93.8,60.4-93.8,81.8V600h187.7V412.9C393.8,391.4,367.8,331.1,300,331.1z"/>
	<path class="st0" d="M393.3,59.9L300,6l-93.3,53.9l-139.5,79L0.1,290.7c0,30.1,32.5,49,58.7,34.1l0,0L300,187.7l234.8,136.4
		l6.3,3.6c26.2,15.2,59-3.7,59-33.9l-70.2-154.6L393.3,59.9z"/>
	<path class="st0" d="M485.3,354.1h-4.9c-32.3,0-58.5,27.3-58.5,61v0c0,33.7,26.2,61,58.5,61h4.9c32.3,0,58.5-27.3,58.5-61v0
		C543.8,381.4,517.6,354.1,485.3,354.1z"/>
	<path class="st0" d="M114.5,354.1h-4.9c-32.3,0-58.5,27.3-58.5,61v0c0,33.7,26.2,61,58.5,61h4.9c32.3,0,58.5-27.3,58.5-61v0
		C173,381.4,146.8,354.1,114.5,354.1z"/>
</g>
</svg>
