<?xml version="1.0" encoding="utf-8"?>
<!-- Generator: Adobe Illustrator 24.0.2, SVG Export Plug-In . SVG Version: 6.00 Build 0)  -->
<svg version="1.1" id="Layer_1" xmlns="http://www.w3.org/2000/svg" xmlns:xlink="http://www.w3.org/1999/xlink" x="0px" y="0px"
	 viewBox="0 0 200 200" style="enable-background:new 0 0 200 200;" xml:space="preserve">
<style type="text/css">
	.st0{fill:#f0f0f0;}
	.st1{fill:#193279;}
</style>
<g>
	<rect class="st0" width="200" height="200"/>
	<path class="st1" d="M100,85.7c0-1.3-0.2-2.5-0.6-3.7H82v13.4c1.9,1.2,4.1,1.9,6.3,1.9C94.7,97.4,100,92.1,100,85.7z"/>
	<path class="st1" d="M100.1,112.3l-2.1-3.1c-1.3-1.8-4-1.8-5.2,0l-4.6,6.7c-0.6,0.9,0,2,1.1,2H118v-3.1v-10.5
		c0-0.6-0.2-1.3-0.6-1.8l-2.7-4c-1.3-1.8-4-1.8-5.2,0L100.1,112.3z"/>
</g>
<animate id="animation1"
					attributeName="opacity"
					from="0" to=".3" dur="1.2s"
					begin="0s;animation2.end" />
 <animate id="animation2"
					attributeName="opacity"
					from=".3" to="0" dur="1.5s"
					begin="animation1.end" />
</svg>
