<?xml version="1.0" encoding="utf-8"?>
<!-- Generator: Adobe Illustrator 25.4.1, SVG Export Plug-In . SVG Version: 6.00 Build 0)  -->
<svg version="1.1" id="Layer_1" xmlns="http://www.w3.org/2000/svg" xmlns:xlink="http://www.w3.org/1999/xlink" x="0px" y="0px"
	 viewBox="0 0 1920 1080" style="enable-background:new 0 0 1920 1080;" xml:space="preserve">
<style type="text/css">
	.st0{fill:#F0F0F0;}
</style>
<polygon class="st0" points="1920.2,1080 0.2,1080 0.2,1080 1920.2,1072 "/>
<polygon class="st0" points="0.2,1080 0.2,1080 1920.2,1037.3 1920.2,1045.2 "/>
<polygon class="st0" points="0.2,1080 0.2,1080 1920.2,1002.6 1920.2,1010.5 "/>
<polygon class="st0" points="0.2,1080 0.2,1080 1920.2,967.9 1920.2,975.8 "/>
<polygon class="st0" points="0.2,1080 0.2,1080 1920.2,933.2 1920.2,941 "/>
<polygon class="st0" points="0.2,1080 0.2,1080 1920.2,898.5 1920.2,906.3 "/>
<polygon class="st0" points="0.2,1080 0.2,1080 1920.2,863.7 1920.2,871.5 "/>
<polygon class="st0" points="0.2,1080 0.2,1080 1920.2,829 1920.2,836.8 "/>
<polygon class="st0" points="0.2,1080 0.2,1080 1920.2,794.3 1920.2,802 "/>
<polygon class="st0" points="0.2,1080 0.2,1080 1920.2,759.6 1920.2,767.3 "/>
<polygon class="st0" points="0.2,1080 0.2,1080 1920.2,724.9 1920.2,732.6 "/>
<polygon class="st0" points="0.2,1080 0.2,1080 1920.2,690.2 1920.2,697.8 "/>
<polygon class="st0" points="0.2,1080 0.2,1080 1920.2,655.5 1920.2,663.1 "/>
<polygon class="st0" points="0.2,1080 0.2,1080 1920.2,620.8 1920.2,628.3 "/>
<polygon class="st0" points="0.2,1080 0.2,1080 1920.2,586.1 1920.2,593.6 "/>
<polygon class="st0" points="0.2,1080 0.2,1080 1920.2,551.3 1920.2,558.9 "/>
<polygon class="st0" points="0.2,1080 0.2,1080 1920.2,516.6 1920.2,524.1 "/>
<polygon class="st0" points="0.2,1080 0.2,1080 1920.2,481.9 1920.2,489.4 "/>
<polygon class="st0" points="0.2,1080 0.2,1080 1920.2,447.2 1920.2,454.6 "/>
<polygon class="st0" points="0.2,1080 0.2,1080 1920.2,412.5 1920.2,419.9 "/>
<polygon class="st0" points="0.2,1080 0.2,1080 1920.2,377.8 1920.2,385.1 "/>
<polygon class="st0" points="0.2,1080 0.2,1080 1920.2,343.1 1920.2,350.4 "/>
<polygon class="st0" points="0.2,1080 0.2,1080 1920.2,308.4 1920.2,315.7 "/>
<polygon class="st0" points="0.2,1080 0.2,1080 1920.2,273.7 1920.2,280.9 "/>
<polygon class="st0" points="0.2,1080 0.2,1080 1920.2,239 1920.2,246.2 "/>
<polygon class="st0" points="0.2,1080 0.2,1080 1920.2,204.3 1920.2,211.4 "/>
<polygon class="st0" points="0.2,1080 0.2,1080 1920.2,169.5 1920.2,176.7 "/>
<polygon class="st0" points="0,1080 0.2,1080 1920.2,134.8 1920.2,142 "/>
<polygon class="st0" points="0.1,1080 0.2,1080 1920.2,100.1 1920.2,107.2 "/>
<polygon class="st0" points="0.1,1080 0.2,1080 1920.2,65.4 1920.2,72.5 "/>
<polygon class="st0" points="0.2,1080 0.2,1080 1920.2,30.7 1920.2,37.7 "/>
<polygon class="st0" points="0.2,1080 0.2,1080 1913.2,0 1920.2,0.1 1920.2,3 "/>
</svg>
