<svg xmlns="http://www.w3.org/2000/svg" viewBox="0 0 300 300"><style type="text/css">
	.pulse-bg{fill:#F0F0F0;}
	.pulse{fill:#193279;}
	 .blank{fill:none;}
</style>
<rect x="0" y="0" class="blank" width="32" height="32">
	<path class="pulse" d="M300,285.7c0-1.3-0.2-2.5-0.6-3.7h-14.3c-1.7,0-3.1,1.4-3.1,3.1v10.4c1.9,1.2,4.1,1.9,6.3,1.9
		C294.7,297.4,300,292.1,300,285.7z"/>
	<path class="pulse-bg" d="M300.1,312.3l-4.7-6.9l-8.6,12.5h28.1c1.7,0,3.1-1.4,3.1-3.1c0,0,0,0,0,0v-11.5l-5.9-8.6L300.1,312.3z"/>
</rect>
<rect x="0" y="0" class="blank" width="200" height="200">



	 <animate id="animation1"
             attributeName="opacity"
             from="0" to=".3" dur="1.2s"
             begin="0s;animation2.end" />
    <animate id="animation2"
             attributeName="opacity"
             from=".3" to="0" dur="1.5s"
             begin="animation1.end" />
</rect>
</svg>
