<svg id="Layer_1" data-name="Layer 1" xmlns="http://www.w3.org/2000/svg" viewBox="0 0 600 600"><defs><style>.cls-1{fill:#193279;}</style></defs><path class="cls-1" d="M577.26,600H600V568.31A33.46,33.46,0,0,1,577.26,600Z"/><path class="cls-1" d="M576.54,0c10,0,16,15.28,10.48,23.65l-56.46,85.06a90,90,0,0,1-41.47,33.75L101.81,297.82a90,90,0,0,1-62.29,1.74L0,286.22v95.14l40.55,12.29a90.05,90.05,0,0,0,59.91-2.73l106.76-47.23L412.57,529.23a81,81,0,0,0,112-24.23L299,306.47l241.2-93.83A90,90,0,0,0,586.12,171L600,144.53V0Z"/></svg>