<svg id="Layer_1" data-name="Layer 1" xmlns="http://www.w3.org/2000/svg" viewBox="0 0 600 600"><defs><style>.cls-1{fill:#fff;}</style></defs><path class="cls-1" d="M101.81,297.82,489.09,142.46a90,90,0,0,0,41.47-33.75L587,23.65A12.58,12.58,0,0,0,576.54,4.1H0V286.22l39.52,13.34A90,90,0,0,0,101.81,297.82Z"/><path class="cls-1" d="M540.22,212.64,299,306.47,524.52,505h0a81,81,0,0,1-111.95,24.23L207.22,343.69,100.46,390.92a90.05,90.05,0,0,1-59.91,2.73L0,381.36v220l566.52.36A33.46,33.46,0,0,0,600,568.31V144.53L586.12,171A90,90,0,0,1,540.22,212.64Z"/></svg>