<?xml version="1.0" encoding="utf-8"?>
<!-- Generator: Adobe Illustrator 24.0.2, SVG Export Plug-In . SVG Version: 6.00 Build 0)  -->
<svg version="1.1" id="Layer_1" xmlns="http://www.w3.org/2000/svg" xmlns:xlink="http://www.w3.org/1999/xlink" x="0px" y="0px"
	 viewBox="0 0 1024 1024" style="enable-background:new 0 0 1024 1024;" xml:space="preserve">
<style type="text/css">
	.st0{fill:#FFFFFF;}
</style>
<g>
	<path class="st0" d="M1025.1,139.5h-2H2.8h-2v88.8c0,30.1,17.8,57.4,45.4,69.5l0.3,0.1l432.9,249.2c20.9,12.1,46.7,12.1,67.6,0
		L980,297.9l0,0c14.8-6.6,26.7-17.5,34.6-30.9c3.6-5.4,6.4-11.3,8.5-17.6v-3.8c1.3-5.5,2-11.3,2-17.1V139.5z"/>
	<path class="st0" d="M978.7,832.5c-0.1-0.5-0.3-1.1-0.5-1.6c-1.2-3.6-3.7-7-7.5-9.5L788.5,702.3l-192-128L574,587.2
		c-17.8,10.3-38.2,15.7-58.8,15.7c-20.6,0-40.9-5.4-58.8-15.7l-28.4-16.3L375,605.2l-125.7,81.3L130,767.1l-80.6,54.5
		c-1.4,1-2.7,2.1-3.7,3.2c-0.3,0.4-0.7,0.8-1,1.2c-0.6,0.8-1.1,1.7-1.6,2.6c-0.4,0.9-0.8,1.8-1.1,2.7c-0.2,0.5-0.3,1.1-0.4,1.6
		c-1.3,6,0.5,12.5,4.6,17c1.3,1.4,2.8,2.6,4.5,3.6c0.9,0.5,1.8,0.9,2.7,1.2c1,0.3,2,0.6,3,0.8s2.2,0.3,3.3,0.3h900.6
		c1.2,0,2.3-0.1,3.3-0.3c1.6-0.3,3.1-0.7,4.5-1.3c1.8-0.8,3.5-1.9,4.9-3.3c0.7-0.7,1.4-1.4,1.9-2.1c2.1-2.6,3.4-5.8,3.9-9.1
		c0.1-0.9,0.2-1.9,0.2-2.9c0-0.7,0-1.4-0.1-2.1C979,833.9,978.8,833.2,978.7,832.5z"/>
	<path class="st0" d="M644.9,546.5l171.2,114.1l182,119c11.3,7.4,19.8,17.5,25.1,29.1V328.6c-5.7,4-11.8,7.5-18.2,10.6L644.9,546.5z
		"/>
	<path class="st0" d="M221.7,644.8l0.4-0.3l157.3-101.7L25.8,339.3C16,334.8,7,329.1-1.1,322.4v482.8c5.2-9.8,12.8-18.5,22.5-25.1
		l199.9-135.1L221.7,644.8z"/>
</g>
</svg>
