<?xml version="1.0" encoding="utf-8"?>
<!-- Generator: Adobe Illustrator 24.0.2, SVG Export Plug-In . SVG Version: 6.00 Build 0)  -->
<svg version="1.1" id="Layer_1" xmlns="http://www.w3.org/2000/svg" xmlns:xlink="http://www.w3.org/1999/xlink" x="0px" y="0px"
	 viewBox="0 0 600 600" style="enable-background:new 0 0 600 600;" xml:space="preserve">
<style type="text/css">
	.st0{fill:#193279;}
</style>
<text transform="matrix(1 0 0 1 -218.0996 -3515.5952)" style="font-family:'MyriadPro-Regular'; font-size:12px;">@</text>
<g>
	<path class="st0" d="M236.4,234c-44.6,0-80.8,36.2-80.8,80.8s36.2,80.8,80.8,80.8s80.8-36.2,80.8-80.8S281,234,236.4,234L236.4,234
		z"/>
</g>
<g>
	<path class="st0" d="M600.2,292.4c0-8.3-0.7-18.5-2.4-30.1C585.7,165.6,527.5,83.2,446,37.7C408.7,16.9,366.5,3.8,321.5,0.6
		C314.5,0.2,307.4,0,300,0C146.2,0,19.4,115.8,2,264.9c-1.3,10.8-2,21.4-2.2,32c0,1,0,2.1,0,3.1c0,139.7,95.4,257.1,224.7,290.6
		c24.8,6.1,51,9.4,78.2,9.4h6.7h290c0.3,0,0.5-0.2,0.5-0.5v0C600,528,542,463,470.5,463l-7.9-0.3c0,0-148.8-0.4-162.6-0.4
		c-81.7,0-149.3-60.4-160.7-138.9c-1.1-7.7-1.7-15.5-1.7-23.4c0-72.8,47.9-134.4,113.9-155c15.3-4.8,31.6-7.4,48.5-7.4
		c12.8,0,25.3,1.5,37.2,4.3c68,15.9,119.5,74.6,124.7,146.1c3.5,37.4-13.2,35.3-16,32.5v-48.1c0-35.3-8.6-63.9-43.9-63.9H381h-59
		V368c0,18.7,21,47.3,52.4,62.8c19,9.4,53.6,15.7,78.3,15.6c29.6-0.1,68.2-11.6,91-27.2c28.3-19.4,53.6-70.4,56.3-119.2l0.2,0
		c0-0.9,0-1.7,0-2.6C600.2,295.7,600.2,294,600.2,292.4z"/>
</g>
</svg>
