<svg id="Layer_1" data-name="Layer 1" xmlns="http://www.w3.org/2000/svg" viewBox="0 0 600 600"><defs><style>.cls-1{fill:#fff;}</style></defs><path class="cls-1" d="M155.83,215c0,93.88,50.28,192.26,144.17,192.26S444.17,308.92,444.17,215,393.89,45,300,45,155.83,121.15,155.83,215Z"/><path class="cls-1" d="M46.09,0H0V46.09A46.1,46.1,0,0,1,46.09,0Z"/><path class="cls-1" d="M410.24,401.38c-22.55,0-18.82,61.4-104.25,61.4S209.09,401,189.76,401C149.8,401,0,472.81,0,573.46v0A26.53,26.53,0,0,0,26.52,600h547A26.53,26.53,0,0,0,600,573.48h0C600,473.91,459.32,401.38,410.24,401.38Z"/><path class="cls-1" d="M553.91,0A46.1,46.1,0,0,1,600,46.09V0Z"/></svg>