<?xml version="1.0" encoding="utf-8"?>
<!-- Generator: Adobe Illustrator 23.0.1, SVG Export Plug-In . SVG Version: 6.00 Build 0)  -->
<svg version="1.1" id="Layer_1" xmlns="http://www.w3.org/2000/svg" xmlns:xlink="http://www.w3.org/1999/xlink" x="0px" y="0px"
	 viewBox="0 0 300 300" style="enable-background:new 0 0 300 300;" xml:space="preserve">
<style type="text/css">
	.st0{opacity:0.13;}
	.st1{clip-path:url(#SVGID_2_);}
	.st2{clip-path:url(#SVGID_4_);}
	.st3{fill:#193279;stroke:#193279;stroke-width:3.6;stroke-miterlimit:10;}
</style>
<g class="st0">
	<defs>
		<rect id="SVGID_1_" class="st0" width="300" height="300"/>
	</defs>
	<clipPath id="SVGID_2_">
		<use xlink:href="#SVGID_1_"  style="overflow:visible;"/>
	</clipPath>
	<g class="st1">
		<g>
			<defs>
				
					<rect id="SVGID_3_" x="-262.3" y="-850.5" transform="matrix(0.4575 -0.8892 0.8892 0.4575 167.5129 129.0902)" width="903.7" height="1555.6"/>
			</defs>
			<clipPath id="SVGID_4_">
				<use xlink:href="#SVGID_3_"  style="overflow:visible;"/>
			</clipPath>
			<g class="st2">
				<path class="st3" d="M-719.9-23.6l1.3-2.6L992.5,854.2l-1.3,2.6L-719.9-23.6z"/>
				<path class="st3" d="M-712.4-31l1.3-2.6L1000,846.8l-1.3,2.6L-712.4-31z"/>
				<path class="st3" d="M-705-38.5l1.3-2.6l1711.1,880.4l-1.3,2.6L-705-38.5z"/>
				<path class="st3" d="M-697.5-46l1.3-2.6L1015,831.8l-1.3,2.6L-697.5-46z"/>
				<path class="st3" d="M-690-53.5l1.3-2.6l1711.1,880.4l-1.3,2.6L-690-53.5z"/>
				<path class="st3" d="M-682.4-61l1.3-2.6L1030,816.8l-1.3,2.6L-682.4-61z"/>
				<path class="st3" d="M-674.9-68.5l1.3-2.6l1711.1,880.4l-1.3,2.6L-674.9-68.5z"/>
				<path class="st3" d="M-667.4-76l1.3-2.6L1045,801.8l-1.3,2.6L-667.4-76z"/>
				<path class="st3" d="M-659.9-83.5l1.3-2.6l1711.1,880.4l-1.3,2.6L-659.9-83.5z"/>
				<path class="st3" d="M-652.4-91l1.3-2.6L1060,786.8l-1.3,2.6L-652.4-91z"/>
				<path class="st3" d="M-644.9-98.5l1.3-2.6l1711.1,880.4l-1.3,2.6L-644.9-98.5z"/>
				<path class="st3" d="M-637.4-106l1.3-2.6L1075,771.8l-1.3,2.6L-637.4-106z"/>
				<path class="st3" d="M-630-113.5l1.3-2.6l1711.1,880.4l-1.3,2.6L-630-113.5z"/>
				<path class="st3" d="M-622.5-121l1.3-2.6L1090,756.8l-1.3,2.6L-622.5-121z"/>
				<path class="st3" d="M-615-128.5l1.3-2.6l1711.1,880.4l-1.3,2.6L-615-128.5z"/>
				<path class="st3" d="M-607.5-136l1.3-2.6l1711.1,880.4l-1.3,2.6L-607.5-136z"/>
				<path class="st3" d="M-600-143.5l1.3-2.6l1711.1,880.4l-1.3,2.6L-600-143.5z"/>
				<path class="st3" d="M-592.5-150.9l1.3-2.6l1711.1,880.4l-1.3,2.6L-592.5-150.9z"/>
				<path class="st3" d="M-585.1-158.4l1.3-2.6l1711.1,880.4l-1.3,2.6L-585.1-158.4z"/>
				<path class="st3" d="M-577.6-165.9l1.3-2.6l1711.1,880.4l-1.3,2.6L-577.6-165.9z"/>
				<path class="st3" d="M-570.1-173.4l1.3-2.6l1711.1,880.4l-1.3,2.6L-570.1-173.4z"/>
				<path class="st3" d="M-562.5-180.9l1.3-2.6l1711.1,880.4l-1.3,2.6L-562.5-180.9z"/>
				<path class="st3" d="M-555-188.4l1.3-2.6l1711.1,880.4l-1.3,2.6L-555-188.4z"/>
				<path class="st3" d="M-547.5-195.9l1.3-2.6l1711.1,880.4l-1.3,2.6L-547.5-195.9z"/>
				<path class="st3" d="M-540-203.4l1.3-2.6l1711.1,880.4l-1.3,2.6L-540-203.4z"/>
				<path class="st3" d="M-532.5-210.9l1.3-2.6l1711.1,880.4l-1.3,2.6L-532.5-210.9z"/>
				<path class="st3" d="M-525-218.4l1.3-2.6l1711.1,880.4l-1.3,2.6L-525-218.4z"/>
				<path class="st3" d="M-517.5-225.9l1.3-2.6l1711.1,880.4l-1.3,2.6L-517.5-225.9z"/>
				<path class="st3" d="M-510-233.4l1.3-2.6l1711.1,880.4l-1.3,2.6L-510-233.4z"/>
				<path class="st3" d="M-502.6-240.9l1.3-2.6l1711.1,880.4l-1.3,2.6L-502.6-240.9z"/>
				<path class="st3" d="M-495.1-248.4l1.3-2.6l1711.1,880.4l-1.3,2.6L-495.1-248.4z"/>
				<path class="st3" d="M-487.6-255.9l1.3-2.6l1711.1,880.4l-1.3,2.6L-487.6-255.9z"/>
				<path class="st3" d="M-480.1-263.4l1.3-2.6l1711.1,880.4l-1.3,2.6L-480.1-263.4z"/>
				<path class="st3" d="M-472.6-270.8l1.3-2.6L1239.8,607l-1.3,2.6L-472.6-270.8z"/>
				<path class="st3" d="M-465.1-278.3l1.3-2.6l1711.1,880.4l-1.3,2.6L-465.1-278.3z"/>
				<path class="st3" d="M-457.7-285.8l1.3-2.6L1254.8,592l-1.3,2.6L-457.7-285.8z"/>
				<path class="st3" d="M-450.2-293.3l1.3-2.6l1711.1,880.4l-1.3,2.6L-450.2-293.3z"/>
				<path class="st3" d="M-442.6-300.8l1.3-2.6L1269.8,577l-1.3,2.6L-442.6-300.8z"/>
				<path class="st3" d="M-435.1-308.3l1.3-2.6l1711.1,880.4l-1.3,2.6L-435.1-308.3z"/>
				<path class="st3" d="M-427.6-315.8l1.3-2.6L1284.8,562l-1.3,2.6L-427.6-315.8z"/>
				<path class="st3" d="M-420.1-323.3l1.3-2.6l1711.1,880.4l-1.3,2.6L-420.1-323.3z"/>
				<path class="st3" d="M-412.6-330.8l1.3-2.6L1299.8,547l-1.3,2.6L-412.6-330.8z"/>
				<path class="st3" d="M-405.1-338.3l1.3-2.6l1711.1,880.4l-1.3,2.6L-405.1-338.3z"/>
				<path class="st3" d="M-397.6-345.8l1.3-2.6L1314.8,532l-1.3,2.6L-397.6-345.8z"/>
				<path class="st3" d="M-390.1-353.3l1.3-2.6l1711.1,880.4l-1.3,2.6L-390.1-353.3z"/>
				<path class="st3" d="M-382.7-360.8l1.3-2.6L1329.8,517l-1.3,2.6L-382.7-360.8z"/>
				<path class="st3" d="M-375.2-368.3l1.3-2.6l1711.1,880.4l-1.3,2.6L-375.2-368.3z"/>
				<path class="st3" d="M-367.7-375.8l1.3-2.6L1344.7,502l-1.3,2.6L-367.7-375.8z"/>
				<path class="st3" d="M-360.2-383.3l1.3-2.6l1711.1,880.4l-1.3,2.6L-360.2-383.3z"/>
				<path class="st3" d="M-352.7-390.7l1.3-2.6l1711.1,880.4l-1.3,2.6L-352.7-390.7z"/>
				<path class="st3" d="M-345.2-398.2l1.3-2.6l1711.1,880.4l-1.3,2.6L-345.2-398.2z"/>
			</g>
		</g>
	</g>
</g>
</svg>
