<?xml version="1.0" encoding="utf-8"?>
<!-- Generator: Adobe Illustrator 20.1.0, SVG Export Plug-In . SVG Version: 6.00 Build 0)  -->
<svg version="1.1" id="Layer_1" xmlns="http://www.w3.org/2000/svg" xmlns:xlink="http://www.w3.org/1999/xlink" x="0px" y="0px"
	 viewBox="0 0 300 300" style="enable-background:new 0 0 300 300;" xml:space="preserve">
<style type="text/css">
	.st0{clip-path:url(#SVGID_2_);}
	.st1{clip-path:url(#SVGID_4_);}
	.st2{fill:#89E0E0;}
	.st3{display:none;}
	.st4{display:inline;}
	.st5{clip-path:url(#SVGID_6_);fill:#89E0E0;}
</style>
<g>
	<defs>
		<rect id="SVGID_1_" x="0" width="300" height="300"/>
	</defs>
	<clipPath id="SVGID_2_">
		<use xlink:href="#SVGID_1_"  style="overflow:visible;"/>
	</clipPath>
	<g class="st0">
		<g>
			<g>
				<g>
					<defs>
						
							<rect id="SVGID_3_" x="-262.3" y="-850.6" transform="matrix(0.4575 -0.8892 0.8892 0.4575 167.5672 129.1134)" width="903.7" height="1555.6"/>
					</defs>
					<clipPath id="SVGID_4_">
						<use xlink:href="#SVGID_3_"  style="overflow:visible;"/>
					</clipPath>
					<g class="st1">
						<g>
							
								<rect x="134.9" y="-546.8" transform="matrix(0.4575 -0.8892 0.8892 0.4575 -295.3942 346.539)" class="st2" width="2.9" height="1924.3"/>
							
								<rect x="142.3" y="-554.3" transform="matrix(0.4575 -0.8892 0.8892 0.4575 -284.6651 349.137)" class="st2" width="2.9" height="1924.3"/>
							
								<rect x="149.8" y="-561.8" transform="matrix(0.4575 -0.8892 0.8892 0.4575 -273.936 351.7351)" class="st2" width="2.9" height="1924.3"/>
							
								<rect x="157.3" y="-569.3" transform="matrix(0.4575 -0.8892 0.8892 0.4575 -263.2069 354.3331)" class="st2" width="2.9" height="1924.3"/>
							
								<rect x="164.8" y="-576.8" transform="matrix(0.4575 -0.8892 0.8892 0.4575 -252.4779 356.9312)" class="st2" width="2.9" height="1924.3"/>
							
								<rect x="172.3" y="-584.2" transform="matrix(0.4575 -0.8892 0.8892 0.4575 -241.7488 359.5292)" class="st2" width="2.9" height="1924.3"/>
							
								<rect x="179.8" y="-591.7" transform="matrix(0.4575 -0.8892 0.8892 0.4575 -231.0197 362.1273)" class="st2" width="2.9" height="1924.3"/>
							
								<rect x="187.3" y="-599.2" transform="matrix(0.4575 -0.8892 0.8892 0.4575 -220.2906 364.7253)" class="st2" width="2.9" height="1924.3"/>
							
								<rect x="194.8" y="-606.7" transform="matrix(0.4575 -0.8892 0.8892 0.4575 -209.5616 367.3233)" class="st2" width="2.9" height="1924.3"/>
							
								<rect x="202.3" y="-614.2" transform="matrix(0.4575 -0.8892 0.8892 0.4575 -198.8325 369.9214)" class="st2" width="2.9" height="1924.3"/>
							
								<rect x="209.8" y="-621.7" transform="matrix(0.4575 -0.8892 0.8892 0.4575 -188.1034 372.5194)" class="st2" width="2.9" height="1924.3"/>
							
								<rect x="217.3" y="-629.2" transform="matrix(0.4575 -0.8892 0.8892 0.4575 -177.3743 375.1175)" class="st2" width="2.9" height="1924.3"/>
							
								<rect x="224.8" y="-636.7" transform="matrix(0.4575 -0.8892 0.8892 0.4575 -166.6452 377.7155)" class="st2" width="2.9" height="1924.3"/>
							
								<rect x="232.3" y="-644.2" transform="matrix(0.4575 -0.8892 0.8892 0.4575 -155.9162 380.3136)" class="st2" width="2.9" height="1924.3"/>
							
								<rect x="239.8" y="-651.7" transform="matrix(0.4575 -0.8892 0.8892 0.4575 -145.1871 382.9116)" class="st2" width="2.9" height="1924.3"/>
							
								<rect x="247.3" y="-659.2" transform="matrix(0.4575 -0.8892 0.8892 0.4575 -134.458 385.5097)" class="st2" width="2.9" height="1924.3"/>
							
								<rect x="254.8" y="-666.7" transform="matrix(0.4575 -0.8892 0.8892 0.4575 -123.7289 388.1077)" class="st2" width="2.9" height="1924.3"/>
							
								<rect x="262.2" y="-674.2" transform="matrix(0.4575 -0.8892 0.8892 0.4575 -112.9998 390.7057)" class="st2" width="2.9" height="1924.3"/>
							
								<rect x="269.7" y="-681.7" transform="matrix(0.4575 -0.8892 0.8892 0.4575 -102.2708 393.3038)" class="st2" width="2.9" height="1924.3"/>
							
								<rect x="277.2" y="-689.2" transform="matrix(0.4575 -0.8892 0.8892 0.4575 -91.5417 395.9019)" class="st2" width="2.9" height="1924.3"/>
							
								<rect x="284.7" y="-696.7" transform="matrix(0.4575 -0.8892 0.8892 0.4575 -80.8126 398.4999)" class="st2" width="2.9" height="1924.3"/>
							
								<rect x="292.2" y="-704.1" transform="matrix(0.4575 -0.8892 0.8892 0.4575 -70.0835 401.0979)" class="st2" width="2.9" height="1924.3"/>
							
								<rect x="299.7" y="-711.6" transform="matrix(0.4575 -0.8892 0.8892 0.4575 -59.3544 403.696)" class="st2" width="2.9" height="1924.3"/>
							
								<rect x="307.2" y="-719.1" transform="matrix(0.4575 -0.8892 0.8892 0.4575 -48.6254 406.294)" class="st2" width="2.9" height="1924.3"/>
							
								<rect x="314.7" y="-726.6" transform="matrix(0.4575 -0.8892 0.8892 0.4575 -37.8963 408.8921)" class="st2" width="2.9" height="1924.3"/>
							
								<rect x="322.2" y="-734.1" transform="matrix(0.4575 -0.8892 0.8892 0.4575 -27.1672 411.4901)" class="st2" width="2.9" height="1924.3"/>
							
								<rect x="329.7" y="-741.6" transform="matrix(0.4575 -0.8892 0.8892 0.4575 -16.4381 414.0882)" class="st2" width="2.9" height="1924.3"/>
							
								<rect x="337.2" y="-749.1" transform="matrix(0.4575 -0.8892 0.8892 0.4575 -5.7091 416.6862)" class="st2" width="2.9" height="1924.3"/>
							
								<rect x="344.7" y="-756.6" transform="matrix(0.4575 -0.8892 0.8892 0.4575 5.02 419.2842)" class="st2" width="2.9" height="1924.3"/>
							
								<rect x="352.2" y="-764.1" transform="matrix(0.4575 -0.8892 0.8892 0.4575 15.7491 421.8823)" class="st2" width="2.9" height="1924.3"/>
							
								<rect x="359.7" y="-771.6" transform="matrix(0.4575 -0.8892 0.8892 0.4575 26.4782 424.4803)" class="st2" width="2.9" height="1924.3"/>
							
								<rect x="367.2" y="-779.1" transform="matrix(0.4575 -0.8892 0.8892 0.4575 37.2073 427.0784)" class="st2" width="2.9" height="1924.3"/>
							
								<rect x="374.7" y="-786.6" transform="matrix(0.4575 -0.8892 0.8892 0.4575 47.9363 429.6764)" class="st2" width="2.9" height="1924.3"/>
							
								<rect x="382.1" y="-794.1" transform="matrix(0.4575 -0.8892 0.8892 0.4575 58.6654 432.2745)" class="st2" width="2.9" height="1924.3"/>
							
								<rect x="389.6" y="-801.6" transform="matrix(0.4575 -0.8892 0.8892 0.4575 69.3945 434.8725)" class="st2" width="2.9" height="1924.3"/>
							
								<rect x="397.1" y="-809.1" transform="matrix(0.4575 -0.8892 0.8892 0.4575 80.1236 437.4706)" class="st2" width="2.9" height="1924.3"/>
							
								<rect x="404.6" y="-816.6" transform="matrix(0.4575 -0.8892 0.8892 0.4575 90.8527 440.0686)" class="st2" width="2.9" height="1924.3"/>
							
								<rect x="412.1" y="-824" transform="matrix(0.4575 -0.8892 0.8892 0.4575 101.5817 442.6667)" class="st2" width="2.9" height="1924.3"/>
							
								<rect x="419.6" y="-831.5" transform="matrix(0.4575 -0.8892 0.8892 0.4575 112.3108 445.2647)" class="st2" width="2.9" height="1924.3"/>
							
								<rect x="427.1" y="-839" transform="matrix(0.4575 -0.8892 0.8892 0.4575 123.0399 447.8627)" class="st2" width="2.9" height="1924.3"/>
							
								<rect x="434.6" y="-846.5" transform="matrix(0.4575 -0.8892 0.8892 0.4575 133.769 450.4608)" class="st2" width="2.9" height="1924.3"/>
							
								<rect x="442.1" y="-854" transform="matrix(0.4575 -0.8892 0.8892 0.4575 144.498 453.0588)" class="st2" width="2.9" height="1924.3"/>
							
								<rect x="449.6" y="-861.5" transform="matrix(0.4575 -0.8892 0.8892 0.4575 155.2271 455.6569)" class="st2" width="2.9" height="1924.3"/>
							
								<rect x="457.1" y="-869" transform="matrix(0.4575 -0.8892 0.8892 0.4575 165.9562 458.2549)" class="st2" width="2.9" height="1924.3"/>
							
								<rect x="464.6" y="-876.5" transform="matrix(0.4575 -0.8892 0.8892 0.4575 176.6853 460.853)" class="st2" width="2.9" height="1924.3"/>
							
								<rect x="472.1" y="-884" transform="matrix(0.4575 -0.8892 0.8892 0.4575 187.4144 463.451)" class="st2" width="2.9" height="1924.3"/>
							
								<rect x="479.6" y="-891.5" transform="matrix(0.4575 -0.8892 0.8892 0.4575 198.1434 466.0491)" class="st2" width="2.9" height="1924.3"/>
							
								<rect x="487.1" y="-899" transform="matrix(0.4575 -0.8892 0.8892 0.4575 208.8725 468.6471)" class="st2" width="2.9" height="1924.3"/>
							
								<rect x="494.6" y="-906.5" transform="matrix(0.4575 -0.8892 0.8892 0.4575 219.6016 471.2451)" class="st2" width="2.9" height="1924.3"/>
							
								<rect x="502" y="-914" transform="matrix(0.4575 -0.8892 0.8892 0.4575 230.3307 473.8432)" class="st2" width="2.9" height="1924.3"/>
							
								<rect x="509.5" y="-921.5" transform="matrix(0.4575 -0.8892 0.8892 0.4575 241.0598 476.4412)" class="st2" width="2.9" height="1924.3"/>
						</g>
					</g>
				</g>
			</g>
		</g>
		<g class="st3">
			<g class="st4">
				<g>
					<defs>
						<rect id="SVGID_5_" x="-10.9" y="-162.8" width="1555.6" height="903.7"/>
					</defs>
					<clipPath id="SVGID_6_">
						<use xlink:href="#SVGID_5_"  style="overflow:visible;"/>
					</clipPath>
					<polygon class="st5" points="1557.6,-155.9 1557.6,751 205.6,297.5 					"/>
				</g>
			</g>
		</g>
	</g>
</g>
</svg>
