<svg enable-background="new 0 0 1024 1024" viewBox="0 0 1024 1024" xmlns="http://www.w3.org/2000/svg"><g fill="#193279"><path d="m890.7 2.8h-205.1-93.6l95.9 95.9-120.4 120.4 239.4 239.4 120.4-120.4 96.7 96.7v-93.6-205c0-73.7-59.7-133.4-133.3-133.4z"/><path d="m1024 890.7v-205.1-93.6l-95.9 95.9-120.4-120.4-239.4 239.4 120.4 120.4-96.7 96.7h93.6 205c73.7 0 133.4-59.7 133.4-133.3z"/><path d="m133.3 1024h205.1 93.6l-95.9-95.9 120.4-120.4-239.4-239.4-120.4 120.4-96.7-96.7v93.6 205c0 73.7 59.7 133.4 133.3 133.4z"/><path d="m.4 133.3v205.1 93.6l95.9-95.9 120.4 120.4 239.4-239.4-120.4-120.4 96.7-96.7h-93.6-205c-73.7 0-133.4 59.7-133.4 133.3z"/></g></svg>