<?xml version="1.0" encoding="utf-8"?>
<!-- Generator: Adobe Illustrator 24.0.2, SVG Export Plug-In . SVG Version: 6.00 Build 0)  -->
<svg version="1.1" id="Layer_1" xmlns="http://www.w3.org/2000/svg" xmlns:xlink="http://www.w3.org/1999/xlink" x="0px" y="0px"
	 viewBox="0 0 1024 1024" style="enable-background:new 0 0 1024 1024;" xml:space="preserve">
<style type="text/css">
	.st0{fill:#FFFFFF;}
</style>
<path class="st0" d="M890.7,2.8H685.6H592l95.9,95.9L567.5,219.1l239.4,239.4l120.4-120.4l96.7,96.7v-93.6v-205
	C1024,62.5,964.3,2.8,890.7,2.8z"/>
<path class="st0" d="M1024,890.7V685.6V592l-95.9,95.9L807.7,567.5L568.3,806.9l120.4,120.4L592,1024h93.6h205
	C964.3,1024,1024,964.3,1024,890.7z"/>
<path class="st0" d="M133.3,1024h205.1H432l-95.9-95.9l120.4-120.4L217.1,568.3L96.7,688.7L0,592l0,93.6v205
	C0,964.3,59.7,1024,133.3,1024z"/>
<path class="st0" d="M0.4,133.3v205.1V432l95.9-95.9l120.4,120.4l239.4-239.4L335.7,96.7L432.4,0l-93.6,0h-205
	C60.1,0,0.4,59.7,0.4,133.3z"/>
</svg>
